<svg width="34" height="34" viewBox="0 0 34 34" fill="none" xmlns="http://www.w3.org/2000/svg" xmlns:xlink="http://www.w3.org/1999/xlink">
<path d="M2,17L3.5,17L3.5,17L2,17ZM17,32L17,30.5L17,32ZM32,17L30.5,17L30.5,17L32,17ZM17,2L17,0.5L17,2ZM0.5,17C0.5,19.167 0.927,21.312 1.756,23.314L4.528,22.166C3.849,20.528 3.5,18.773 3.5,17L0.5,17ZM1.756,23.314C2.585,25.316 3.801,27.135 5.333,28.667L7.454,26.546C6.2,25.292 5.206,23.804 4.528,22.166L1.756,23.314ZM5.333,28.667C6.865,30.199 8.684,31.415 10.686,32.244L11.834,29.472C10.196,28.794 8.708,27.8 7.454,26.546L5.333,28.667ZM10.686,32.244C12.688,33.073 14.833,33.5 17,33.5L17,30.5C15.227,30.5 13.472,30.151 11.834,29.472L10.686,32.244ZM17,33.5C19.167,33.5 21.312,33.073 23.314,32.244L22.166,29.472C20.528,30.151 18.773,30.5 17,30.5L17,33.5ZM23.314,32.244C25.316,31.415 27.135,30.199 28.667,28.667L26.546,26.546C25.292,27.8 23.804,28.794 22.166,29.472L23.314,32.244ZM28.667,28.667C30.199,27.135 31.415,25.316 32.244,23.314L29.472,22.166C28.794,23.804 27.8,25.292 26.546,26.546L28.667,28.667ZM32.244,23.314C33.073,21.312 33.5,19.167 33.5,17L30.5,17C30.5,18.773 30.151,20.528 29.472,22.166L32.244,23.314ZM33.5,17C33.5,14.833 33.073,12.688 32.244,10.686L29.472,11.834C30.151,13.472 30.5,15.227 30.5,17L33.5,17ZM32.244,10.686C31.415,8.684 30.199,6.865 28.667,5.333L26.546,7.454C27.8,8.708 28.794,10.196 29.472,11.834L32.244,10.686ZM28.667,5.333C27.135,3.801 25.316,2.585 23.314,1.756L22.166,4.528C23.804,5.206 25.292,6.2 26.546,7.454L28.667,5.333ZM23.314,1.756C21.312,0.927 19.167,0.5 17,0.5L17,3.5C18.773,3.5 20.528,3.849 22.166,4.528L23.314,1.756ZM17,0.5C14.833,0.5 12.688,0.927 10.686,1.756L11.834,4.528C13.472,3.849 15.227,3.5 17,3.5L17,0.5ZM10.686,1.756C8.684,2.585 6.865,3.801 5.333,5.333L7.454,7.454C8.708,6.2 10.196,5.206 11.834,4.528L10.686,1.756ZM5.333,5.333C3.801,6.865 2.585,8.684 1.756,10.686L4.528,11.834C5.206,10.196 6.2,8.708 7.454,7.454L5.333,5.333ZM1.756,10.686C0.927,12.688 0.5,14.833 0.5,17L3.5,17C3.5,15.227 3.849,13.472 4.528,11.834L1.756,10.686Z" fill="#A79277"/>
<path d="M20.8,12.5C21.076,12.978 21.688,13.142 22.166,12.866C22.645,12.591 22.809,11.979 22.533,11.501L20.8,12.5ZM18.667,10.333L18.667,11.333C18.678,11.333 18.689,11.333 18.7,11.333L18.667,10.333ZM15.333,23.667L15.333,22.667C15.322,22.667 15.311,22.667 15.3,22.667L15.333,23.667ZM13.2,21.501C12.924,21.022 12.312,20.858 11.834,21.134C11.355,21.41 11.191,22.021 11.467,22.5L13.2,21.501ZM18,8.667C18,8.114 17.552,7.667 17,7.667C16.448,7.667 16,8.114 16,8.667L18,8.667ZM16,25.333C16,25.886 16.448,26.333 17,26.333C17.552,26.333 18,25.886 18,25.333L16,25.333ZM22.533,11.501C22.141,10.82 21.57,10.259 20.883,9.877L19.912,11.625C20.282,11.831 20.589,12.133 20.8,12.5L22.533,11.501ZM20.883,9.877C20.196,9.495 19.418,9.308 18.633,9.334L18.7,11.333C19.123,11.319 19.542,11.42 19.912,11.625L20.883,9.877ZM18.667,9.333L15.333,9.333L15.333,11.333L18.667,11.333L18.667,9.333ZM15.333,9.333C14.184,9.333 13.082,9.79 12.269,10.603L13.683,12.017C14.121,11.579 14.714,11.333 15.333,11.333L15.333,9.333ZM12.269,10.603C11.457,11.415 11,12.517 11,13.667L13,13.667C13,13.048 13.246,12.454 13.683,12.017L12.269,10.603ZM11,13.667C11,14.816 11.457,15.918 12.269,16.731L13.683,15.317C13.246,14.879 13,14.286 13,13.667L11,13.667ZM12.269,16.731C13.082,17.544 14.184,18 15.333,18L15.333,16C14.714,16 14.121,15.754 13.683,15.317L12.269,16.731ZM15.333,18L18.667,18L18.667,16L15.333,16L15.333,18ZM18.667,18C19.286,18 19.879,18.246 20.317,18.684L21.731,17.269C20.918,16.457 19.816,16 18.667,16L18.667,18ZM20.317,18.684C20.754,19.121 21,19.715 21,20.333L23,20.333C23,19.184 22.543,18.082 21.731,17.269L20.317,18.684ZM21,20.333C21,20.952 20.754,21.546 20.317,21.983L21.731,23.398C22.543,22.585 23,21.483 23,20.333L21,20.333ZM20.317,21.983C19.879,22.421 19.286,22.667 18.667,22.667L18.667,24.667C19.816,24.667 20.918,24.21 21.731,23.398L20.317,21.983ZM18.667,22.667L15.333,22.667L15.333,24.667L18.667,24.667L18.667,22.667ZM15.3,22.667C14.877,22.682 14.458,22.581 14.088,22.375L13.117,24.123C13.804,24.505 14.582,24.693 15.367,24.666L15.3,22.667ZM14.088,22.375C13.718,22.169 13.411,21.867 13.2,21.501L11.467,22.5C11.859,23.18 12.43,23.742 13.117,24.123L14.088,22.375ZM16,8.667L16,25.333L18,25.333L18,8.667L16,8.667Z" fill="#A79277"/>
</svg>
