<svg width="90" height="84" viewBox="0 0 90 84" fill="none" xmlns="http://www.w3.org/2000/svg" xmlns:xlink="http://www.w3.org/1999/xlink">
<g filter="url(#filterI1_6148;145_149;29_592)">
<path d="M0.4,14.734C0.4,9.581 0.4,7.005 1.403,5.037C2.285,3.306 3.693,1.899 5.424,1.016C7.392,0.014 9.968,0.014 15.12,0.014L73.68,0.014C78.833,0.014 81.409,0.014 83.377,1.016C85.108,1.899 86.516,3.306 87.398,5.037C88.4,7.005 88.4,9.581 88.4,14.734L88.4,67.294C88.4,72.446 88.4,75.023 87.398,76.991C86.516,78.722 85.108,80.129 83.377,81.011C81.409,82.014 78.833,82.014 73.68,82.014L15.12,82.014C9.968,82.014 7.392,82.014 5.424,81.011C3.693,80.129 2.285,78.722 1.403,76.991C0.4,75.023 0.4,72.446 0.4,67.294L0.4,14.734Z" clip-rule="evenodd" fill-rule="evenodd" fill="#ADB3BC"/>
</g>
<defs>
<filter id="filterI1_6148;145_149;29_592" x="0.400391" y="0.013733" width="44" height="42" filterUnits="userSpaceOnUse" color-interpolation-filters="sRGB">
<feFlood flood-opacity="0" result="BackgroundImageFix"/>
<feColorMatrix in="SourceAlpha" type="matrix" values="0 0 0 0 0 0 0 0 0 0 0 0 0 0 0 0 0 0 127 0" result="hardAlpha"/>
<feMorphology radius="0" operator="dilate" in="SourceAlpha" result="0dropshadow"/>
<feOffset dx="0" dy="1"/>
<feGaussianBlur stdDeviation="0"/>
<feComposite in2="hardAlpha" operator="out"/>
<feColorMatrix type="matrix" values="0 0 0 0 0.537255 0 0 0 0 0.541176 0 0 0 0 0.552941 0 0 0 1 0"/>
<feBlend mode="normal" in2="BackgroundImageFix" result="0dropshadow"/>
<feBlend mode="normal" in="SourceGraphic" in2="0dropshadow" result="shape"/>
</filter>
</defs>
</svg>
