<svg width="32" height="50" viewBox="0 0 32 50" fill="none" xmlns="http://www.w3.org/2000/svg" xmlns:xlink="http://www.w3.org/1999/xlink">
<path d="M2.133,20.027C3.091,20.027 3.867,20.76 3.867,21.665C3.867,21.719 3.864,21.773 3.858,21.827L3.858,26.337L3.849,26.337L3.849,26.35C3.849,26.381 3.852,26.412 3.854,26.443C3.856,26.471 3.858,26.499 3.858,26.527L3.858,27.143L3.891,27.143C4.406,32.969 9.451,37.51 15.633,37.713L16.333,37.713C22.518,37.514 27.565,32.971 28.079,27.143L28.12,27.143L28.12,21.685L28.133,21.685L28.133,21.665C28.133,20.76 28.909,20.027 29.867,20.027C30.824,20.027 31.6,20.76 31.6,21.665C31.6,21.712 31.598,21.759 31.594,21.805L31.594,25.826L31.573,25.826L31.572,25.826C31.578,33.352 25.626,39.692 17.719,40.583L17.719,45.563L24.251,45.563L24.251,45.584C24.274,45.583 24.297,45.583 24.32,45.583C25.277,45.583 26.053,46.316 26.053,47.221C26.053,48.126 25.277,48.859 24.32,48.859C24.297,48.859 24.274,48.859 24.251,48.858L24.251,48.859L7.742,48.859L7.742,48.858C7.722,48.859 7.701,48.859 7.68,48.859C6.723,48.859 5.947,48.126 5.947,47.221C5.947,46.316 6.723,45.583 7.68,45.583C7.701,45.583 7.722,45.583 7.742,45.584L7.742,45.563L14.287,45.563L14.287,40.583C6.364,39.713 0.39,33.365 0.4,25.826C0.4,25.787 0.403,25.75 0.407,25.713L0.407,25.713C0.41,25.683 0.412,25.653 0.413,25.623L0.413,21.868C0.404,21.801 0.4,21.734 0.4,21.665C0.4,20.76 1.176,20.027 2.133,20.027ZM25.346,23.067C25.346,24.057 25.346,25.099 25.291,26.088C25.248,26.98 25.104,27.866 24.861,28.729C24.318,30.541 23.161,32.134 21.567,33.263C18.299,35.701 13.687,35.701 10.419,33.263C8.821,32.137 7.662,30.543 7.124,28.729C6.88,27.866 6.736,26.981 6.695,26.088C6.634,25.099 6.64,24.057 6.64,23.067L6.64,14.785C6.64,13.802 6.645,9.457 6.64,8.723C6.667,7.826 6.831,6.936 7.125,6.082C8.235,2.32 11.861,-0.282 15.994,-0.282C20.126,-0.282 23.752,2.32 24.862,6.082C25.123,6.944 25.286,7.829 25.347,8.723C25.41,9.713 25.347,13.802 25.347,14.785L25.347,23.067L25.346,23.067ZM21.879,24.614C21.879,25.243 21.866,25.452 21.824,26.082C21.8,26.653 21.709,27.22 21.554,27.772C21.222,28.932 20.499,29.958 19.494,30.695C17.437,32.206 14.556,32.206 12.499,30.695C11.49,29.96 10.765,28.934 10.432,27.772C10.28,27.219 10.189,26.652 10.162,26.082C10.127,25.452 10.12,25.243 10.12,24.614C10.12,15.899 10.079,9.437 10.134,8.743C10.174,8.171 10.274,7.605 10.432,7.052C10.765,5.891 11.49,4.864 12.499,4.13C14.556,2.618 17.437,2.618 19.494,4.13C20.499,4.866 21.222,5.892 21.554,7.052C21.73,7.603 21.841,8.17 21.886,8.743C21.935,9.49 21.879,15.872 21.879,24.614Z" clip-rule="evenodd" fill-rule="evenodd" fill="#50555C"/>
</svg>
