<svg width="32" height="50" viewBox="0 0 32 50" fill="none" xmlns="http://www.w3.org/2000/svg" xmlns:xlink="http://www.w3.org/1999/xlink">
<path d="M2.134,20.027C3.091,20.027 3.867,20.76 3.867,21.665C3.867,21.719 3.864,21.773 3.859,21.827L3.859,26.337L3.85,26.337L3.85,26.35C3.85,26.381 3.852,26.412 3.854,26.443C3.856,26.471 3.858,26.499 3.859,26.527L3.859,27.143L3.891,27.143C4.407,32.969 9.451,37.51 15.634,37.713L16.334,37.713C22.518,37.514 27.566,32.971 28.079,27.143L28.121,27.143L28.121,21.685L28.134,21.685L28.134,21.665C28.134,20.76 28.91,20.027 29.867,20.027C30.824,20.027 31.6,20.76 31.6,21.665C31.6,21.712 31.598,21.759 31.594,21.805L31.594,25.826L31.573,25.826L31.573,25.826C31.578,33.352 25.627,39.692 17.72,40.583L17.72,45.563L24.251,45.563L24.251,45.584C24.274,45.583 24.297,45.583 24.32,45.583C25.278,45.583 26.054,46.316 26.054,47.221C26.054,48.126 25.278,48.859 24.32,48.859C24.297,48.859 24.274,48.859 24.251,48.858L24.251,48.859L7.743,48.859L7.743,48.858C7.722,48.859 7.701,48.859 7.68,48.859C6.723,48.859 5.947,48.126 5.947,47.221C5.947,46.316 6.723,45.583 7.68,45.583C7.701,45.583 7.722,45.583 7.743,45.584L7.743,45.563L14.288,45.563L14.288,40.583C6.364,39.713 0.391,33.365 0.4,25.826C0.4,25.787 0.404,25.75 0.407,25.713L0.407,25.713C0.41,25.683 0.413,25.653 0.414,25.623L0.414,21.868C0.405,21.801 0.4,21.734 0.4,21.665C0.4,20.76 1.176,20.027 2.134,20.027ZM25.346,23.067C25.346,24.057 25.346,25.099 25.291,26.088C25.248,26.98 25.104,27.866 24.861,28.729C24.319,30.541 23.162,32.134 21.568,33.263C18.299,35.701 13.688,35.701 10.419,33.263C8.821,32.137 7.663,30.543 7.124,28.729C6.88,27.866 6.736,26.981 6.695,26.088C6.635,25.099 6.64,24.057 6.64,23.067L6.64,14.785C6.64,13.802 6.646,9.457 6.64,8.723C6.668,7.826 6.831,6.936 7.126,6.082C8.236,2.32 11.862,-0.282 15.994,-0.282C20.126,-0.282 23.753,2.32 24.863,6.082C25.123,6.944 25.286,7.829 25.348,8.723C25.41,9.713 25.348,13.802 25.348,14.785L25.348,23.067L25.346,23.067ZM21.88,24.614C21.88,25.243 21.866,25.452 21.824,26.082C21.8,26.653 21.71,27.22 21.554,27.772C21.222,28.932 20.499,29.958 19.495,30.695C17.437,32.206 14.557,32.206 12.499,30.695C11.491,29.96 10.765,28.934 10.433,27.772C10.281,27.219 10.19,26.652 10.163,26.082C10.128,25.452 10.121,25.243 10.121,24.614C10.121,15.899 10.079,9.437 10.135,8.743C10.175,8.171 10.275,7.605 10.433,7.052C10.765,5.891 11.491,4.864 12.499,4.13C14.557,2.618 17.437,2.618 19.495,4.13C20.499,4.866 21.222,5.892 21.554,7.052C21.73,7.603 21.842,8.17 21.887,8.743C21.935,9.49 21.88,15.872 21.88,24.614Z" clip-rule="evenodd" fill-rule="evenodd" fill="#50555C"/>
</svg>
