<svg width="260" height="260" viewBox="0 0 260 260" fill="none" xmlns="http://www.w3.org/2000/svg" xmlns:xlink="http://www.w3.org/1999/xlink">
<path d="M260,130C260,201.798 201.798,260 130,260C58.203,260 0,201.798 0,130C0,58.203 58.203,0 130,0C201.798,0 260,58.203 260,130Z" fill="url(#pattern_0_1_5630)"/>
<path d="M260,130C260,201.798 201.798,260 130,260C58.203,260 0,201.798 0,130C0,58.203 58.203,0 130,0C201.798,0 260,58.203 260,130Z" fill="url(#pattern_1_1_5630)"/>
<path d="M260,130C260,201.798 201.798,260 130,260C58.203,260 0,201.798 0,130C0,58.203 58.203,0 130,0C201.798,0 260,58.203 260,130Z" fill="url(#pattern_0_1_5630)"/>
<path d="M260,130C260,201.798 201.798,260 130,260C58.203,260 0,201.798 0,130C0,58.203 58.203,0 130,0C201.798,0 260,58.203 260,130Z" fill="url(#pattern_1_1_5630)"/>
</svg>
