<svg width="58" height="54" viewBox="0 0 58 54" fill="none" xmlns="http://www.w3.org/2000/svg" xmlns:xlink="http://www.w3.org/1999/xlink">
<path d="M28.08,-0.247C43.588,-0.247 56.16,11.633 56.16,26.289C56.16,40.944 43.588,52.825 28.08,52.825C12.572,52.825 0,40.944 0,26.289C0,11.633 12.572,-0.247 28.08,-0.247ZM28.08,2.844C41.781,2.846 52.887,13.343 52.886,26.29C52.885,39.238 41.777,49.734 28.076,49.733C14.375,49.733 3.269,39.236 3.269,26.289C3.269,20.07 5.883,14.107 10.536,9.71C15.189,5.313 21.5,2.844 28.08,2.844L28.08,2.844ZM19.197,14.779C18.329,14.769 17.493,15.088 16.877,15.666C16.26,16.243 15.914,17.03 15.916,17.85C15.916,19.562 17.385,20.95 19.197,20.95C21.009,20.95 22.477,19.562 22.477,17.85C22.48,17.03 22.134,16.243 21.517,15.666C20.901,15.088 20.065,14.769 19.197,14.779L19.197,14.779ZM46.793,30.86C45.298,38.495 37.499,44.871 28.076,44.871C18.729,44.871 10.976,38.588 9.393,31.039C9.072,29.155 10.705,28.71 12.243,29.062C17.388,30.468 22.724,31.152 28.08,31.092C33.424,31.15 38.748,30.469 43.882,29.068C45.377,28.71 46.979,29.115 46.793,30.86L46.793,30.86ZM41.717,31.921C41.571,31.974 41.423,32.014 41.273,32.06C41.258,32.067 41.752,31.914 41.737,31.921C37.297,33.076 32.708,33.637 28.103,33.586C22.608,33.586 17.693,33.009 14.311,31.861C11.859,31.171 12.329,33.898 14.053,34.734C18.462,36.631 23.258,37.586 28.102,37.533C33.864,37.533 38.999,36.266 42.39,34.628C43.995,33.652 44.312,31.039 41.717,31.921L41.717,31.921ZM36.981,14.779C36.113,14.769 35.277,15.088 34.661,15.666C34.044,16.243 33.698,17.03 33.7,17.85C33.683,18.969 34.304,20.009 35.327,20.573C36.349,21.137 37.613,21.137 38.635,20.573C39.658,20.009 40.279,18.969 40.262,17.85C40.264,17.03 39.918,16.243 39.301,15.666C38.685,15.089 37.849,14.769 36.981,14.779L36.981,14.779Z" clip-rule="evenodd" fill-rule="evenodd" fill="#50555C"/>
</svg>
