<svg width="34" height="22" viewBox="0 0 34 22" fill="none" xmlns="http://www.w3.org/2000/svg" xmlns:xlink="http://www.w3.org/1999/xlink">
<path d="M32,0L30,0C28.895,0 28,0.923 28,2.063L28,19.938C28,21.077 28.895,22 30,22L32,22C33.105,22 34,21.077 34,19.938L34,2.063C34,0.923 33.105,0 32,0ZM20.667,4.813L22.667,4.813C23.771,4.813 24.667,5.736 24.667,6.875L24.667,19.938C24.667,21.077 23.771,22 22.667,22L20.667,22C19.562,22 18.667,21.077 18.667,19.938L18.667,6.875C18.667,5.736 19.562,4.813 20.667,4.813ZM13.333,9.625L11.333,9.625C10.229,9.625 9.333,10.548 9.333,11.688L9.333,19.938C9.333,21.077 10.229,22 11.333,22L13.333,22C14.438,22 15.333,21.077 15.333,19.938L15.333,11.688C15.333,10.548 14.438,9.625 13.333,9.625ZM4,13.75L2,13.75C0.895,13.75 0,14.673 0,15.813L0,19.938C0,21.077 0.895,22 2,22L4,22C5.105,22 6,21.077 6,19.938L6,15.813C6,14.673 5.105,13.75 4,13.75Z" clip-rule="evenodd" fill-rule="evenodd" fill="#FFFFFF"/>
</svg>
