<svg width="1404" height="1662" viewBox="0 0 1404 1662" fill="none" xmlns="http://www.w3.org/2000/svg" xmlns:xlink="http://www.w3.org/1999/xlink">
<g opacity="0.04" style="isolation:isolate">
<path d="M1225.022,1548.856C1172.056,1537.494 1165.736,1495.006 1157.712,1441.156C1148.684,1381.034 1137.548,1306.236 1056.496,1246.587C1015.868,1216.762 976.946,1198.063 937.424,1189.423C902.112,1181.73 867.004,1182.203 830.288,1190.961C762.076,1207.294 697.674,1250.847 635.278,1292.862C576.896,1332.273 516.508,1373.104 451.504,1393.224C416.596,1404.112 383.292,1408.136 349.686,1405.77C311.968,1403.048 274.852,1392.278 236.332,1372.749C169.022,1338.664 102.113,1326.829 37.511,1337.48C25.574,1339.492 13.737,1342.215 2,1345.765L2,1349.434C13.937,1345.883 25.875,1343.043 38.013,1341.031C102.113,1330.379 168.42,1342.215 235.228,1375.945C282.678,1399.97 326.614,1409.912 368.044,1409.912C468.056,1409.912 553.424,1352.274 636.784,1296.057C701.786,1252.149 763.078,1210.726 830.89,1194.512C867.204,1185.754 901.912,1185.281 936.822,1192.973C976.044,1201.495 1014.664,1220.076 1054.89,1249.664C1090.502,1275.819 1134.84,1308.366 1154.802,1441.748C1158.916,1469.56 1162.526,1493.586 1172.056,1512.878C1182.59,1534.298 1199.342,1546.844 1224.52,1552.288C1299.054,1568.384 1343.392,1593.83 1363.956,1632.412C1368.872,1641.526 1372.482,1651.466 1374.89,1662L1378,1662C1375.492,1650.756 1371.78,1640.342 1366.464,1630.518C1345.398,1591.108 1300.458,1565.188 1225.022,1548.856Z" fill="#848484"/>
<path d="M1166.67,1587.706C1103.582,1576.584 1097.664,1554.226 1084.826,1505.484C1073.592,1463.014 1056.642,1398.656 990.344,1305.314C901.178,1179.676 806.596,1258.229 697.07,1349.205C586.04,1441.482 460.164,1545.944 306.508,1470.702C247.632,1441.836 188.255,1427.64 129.881,1428.232C86.452,1428.705 43.423,1437.46 2,1454.258L2,1458.044C43.423,1441.126 86.351,1432.372 129.881,1431.899C187.854,1431.189 246.83,1445.504 305.304,1474.134C374.51,1508.086 444.418,1508.678 518.84,1476.144C583.934,1447.634 642.308,1399.129 698.776,1352.281C752.938,1307.325 804.09,1264.854 851.932,1249.712C904.79,1232.912 948.018,1251.368 988.038,1307.799C1053.934,1400.667 1070.784,1464.552 1081.918,1506.786C1094.756,1555.526 1101.274,1580.016 1166.268,1591.49C1204.282,1598.234 1228.052,1614.796 1236.98,1640.706C1239.186,1647.212 1240.49,1654.31 1240.992,1662L1244,1662C1243.598,1653.838 1242.194,1646.266 1239.788,1639.404C1230.36,1611.958 1205.786,1594.686 1166.67,1587.706Z" fill="#848484"/>
<path d="M854.934,1427.838C827.06,1405.981 789.66,1406.69 743.838,1430.319C707.442,1448.985 665.631,1482.066 619.508,1528.379C572.382,1575.873 530.27,1627.856 504,1662L508.011,1662C534.281,1627.856 575.39,1577.29 621.413,1530.978C667.335,1484.783 708.846,1451.939 744.942,1433.39C789.762,1410.352 826.158,1409.407 853.13,1430.673C915.796,1479.939 949.086,1563.113 978.464,1636.48C981.974,1645.106 985.282,1653.612 988.692,1661.882L992,1661.882C988.39,1653.14 984.78,1644.16 981.172,1634.944C951.792,1561.223 918.304,1477.576 854.934,1427.838Z" fill="#848484"/>
<path d="M775.255,1552.053C762.268,1541.082 745.484,1541.321 725.403,1552.769C709.619,1561.831 691.736,1577.811 672.255,1600.349C653.673,1621.933 636.989,1645.424 626,1662L629.896,1662C661.066,1615.612 732.497,1520.333 773.457,1554.915C799.931,1577.334 815.416,1621.813 828.804,1662L832,1662C818.413,1621.098 802.828,1575.306 775.255,1552.053Z" fill="#848484"/>
<path d="M280.592,1550.174C254.81,1542.397 228.124,1534.384 204.148,1524.839C144.657,1500.918 75.736,1521.068 28.384,1542.161C19.055,1546.285 10.226,1550.645 2,1555.005L2,1558.894C10.527,1554.416 19.757,1549.82 29.488,1545.46C76.338,1524.603 144.556,1504.689 203.144,1528.256C227.12,1537.919 253.906,1545.932 279.79,1553.709C337.976,1571.149 392.952,1587.646 396.764,1617.576C398.37,1630.184 390.946,1644.914 374.292,1662L378.706,1662C394.456,1644.914 401.378,1630.066 399.774,1616.987C395.66,1584.7 342.39,1568.792 280.592,1550.174Z" fill="#848484"/>
<path d="M242.018,1600.886C222.2,1596.812 198.077,1597.051 175.857,1601.605C134.72,1609.993 54.247,1636.835 2,1654.93L2,1658.645C54.247,1640.55 135.221,1613.588 176.458,1605.08C198.378,1600.646 222.1,1600.287 241.616,1604.361C269.842,1610.233 279.752,1622.575 283.154,1632.042C286.258,1640.55 285.456,1650.616 280.852,1662L284.256,1662C288.66,1650.257 289.16,1639.711 285.856,1630.604C279.15,1612.15 258.332,1604.241 242.018,1600.886Z" fill="#848484"/>
<path d="M125.481,948.212C170.858,984.23 200.474,1035.886 226.474,1081.502C255.99,1133.158 281.59,1177.824 321.546,1185.052C325.26,1185.764 329.074,1186 332.89,1186C363.71,1186 400.352,1165.03 446.834,1120.836C481.67,1087.662 510.682,1057.568 536.282,1030.91C590.294,974.632 629.346,933.994 672.514,920.842C716.586,907.336 764.974,921.554 839.464,969.774C900.302,1009.228 972.884,1036.36 1038.44,1044.18C1068.958,1047.852 1096.666,1047.142 1118.652,1041.928C1141.842,1036.478 1158.106,1026.646 1166.84,1012.546C1178.786,993.234 1181.698,957.334 1127.386,895.844C1062.434,822.268 988.546,813.382 910.34,804.022C858.538,797.862 804.93,791.344 750.818,765.634C689.58,736.608 636.474,686.134 588.386,611.611C552.848,556.518 511.386,530.453 468.318,536.258C439.004,540.168 410.192,558.414 382.684,590.285C355.076,622.511 330.18,666.942 308.896,722.39C293.034,763.502 275.566,784.592 255.186,786.724C211.116,791.344 160.116,703.906 110.925,619.312C86.329,577.015 60.93,533.415 36.735,502.136C24.186,485.905 12.742,473.938 2,466L2,470.384C35.832,496.686 72.575,559.717 108.415,621.327C133.111,663.742 158.711,707.698 183.307,739.688C209.61,773.81 232.096,790.516 251.874,790.516C253.078,790.516 254.284,790.396 255.488,790.278C276.972,788.028 295.344,766.346 311.606,723.93C332.79,668.836 357.386,624.763 384.792,592.892C411.798,561.494 440.008,543.604 468.618,539.813C510.482,534.244 551.14,559.836 585.976,613.862C634.364,688.978 687.974,739.688 749.614,768.952C804.126,794.9 857.936,801.298 909.938,807.576C987.642,816.936 1061.028,825.704 1125.278,898.45C1178.084,958.282 1175.674,992.404 1164.43,1010.532C1147.966,1036.952 1100.984,1048.208 1038.74,1040.744C973.588,1032.924 901.406,1005.912 840.87,966.694C765.676,918 716.686,903.782 671.71,917.526C627.84,930.914 588.586,971.79 534.274,1028.422C508.674,1055.08 479.762,1085.174 444.926,1118.23C393.326,1167.28 354.274,1187.422 321.948,1181.616C283.296,1174.744 258.098,1130.67 228.884,1079.606C202.682,1033.754 172.966,981.86 127.088,945.368C89.039,915.156 52.798,899.99 18.966,899.99C13.244,899.99 7.622,900.464 2,901.294L2,904.848C40.048,898.806 81.51,913.378 125.481,948.212Z" fill="#848484"/>
<path d="M58.25,1295.856C104.674,1296.684 156.613,1307.704 202.436,1317.302C268.112,1331.164 319.85,1342.066 326.266,1316.946C335.892,1279.266 304.608,1248.104 252.67,1196.562C215.47,1159.595 169.047,1113.622 119.414,1047.506C82.114,997.86 44.915,975.347 9.019,980.798C6.813,981.153 4.507,981.627 2,982.219L2,985.892C4.406,985.3 6.913,984.708 9.42,984.352C44.313,979.139 80.51,1001.177 117.208,1049.876C167.041,1116.228 213.466,1162.32 250.764,1199.406C301.702,1250 332.484,1280.57 323.46,1315.998C317.844,1338.036 264.602,1326.78 203.038,1313.866C136.56,1299.884 58.551,1283.414 2.1,1297.632L2.1,1301.306C17.943,1297.278 36.693,1295.382 58.25,1295.856Z" fill="#848484"/>
<path d="M190.11,1278C216.098,1278 230.69,1272.423 233.49,1261.151C239.686,1236.59 188.011,1192.331 156.526,1168.126C112.048,1133.835 59.073,1101.561 30.586,1091.238C21.091,1087.797 11.495,1085.424 2.1,1084L2.1,1087.56C11.196,1088.983 20.491,1091.357 29.687,1094.679C57.973,1104.883 110.648,1136.92 154.827,1171.092C206.302,1210.842 234.59,1244.065 230.492,1260.083C226.492,1275.746 190.91,1278.593 130.239,1268.152C81.062,1259.727 29.787,1245.133 2,1235.878L2,1239.556C29.987,1248.93 80.962,1263.287 129.739,1271.711C154.227,1275.864 174.218,1278 190.11,1278Z" fill="#848484"/>
<path d="M61.625,1214C73.691,1214 80.427,1211.258 81.734,1205.773C84.55,1194.805 64.44,1176.563 47.045,1163.21C32.064,1151.645 14.971,1140.677 2,1134L2,1137.934C14.669,1144.611 31.058,1155.222 45.437,1166.31C67.758,1183.478 80.528,1198.262 78.819,1204.82C76.104,1215.431 35.784,1209.469 2,1200.528L2,1204.104C12.155,1206.727 23.517,1209.35 34.577,1211.258C45.537,1213.046 54.486,1214 61.625,1214Z" fill="#848484"/>
<path d="M344.829,1120C341.923,1120 339.118,1119.644 336.412,1118.816C311.864,1111.586 292.325,1091.088 279.9,1059.45C267.375,1027.22 263.167,985.628 267.876,939.06C272.185,897.114 284.71,855.524 304.349,818.79C374.187,687.855 432.202,616.048 476.79,605.384C491.118,601.948 504.244,604.91 515.568,614.271C558.03,649.153 585.728,683.11 610.158,713.058L611.056,714.161L611.274,714.428C649.046,760.751 678.916,797.384 744.32,818.554C785.702,831.944 805.242,844.266 803.938,856.352C802.936,865.714 788.91,873.178 762.156,878.63C736.204,883.844 698.73,887.042 653.842,887.754C619.974,888.346 584.804,903.868 546.228,935.506C512.562,963.234 480.698,999.374 452.542,1031.368C410.96,1078.646 374.588,1120 344.829,1120ZM306.954,820.686C287.616,856.946 275.191,898.062 270.983,939.534C266.373,985.392 270.482,1026.272 282.806,1057.91C294.73,1088.6 313.567,1108.506 337.214,1115.378C339.719,1116.09 342.324,1116.446 344.929,1116.446C373.385,1116.446 409.354,1075.568 450.434,1028.884L450.438,1028.878C478.594,996.768 510.558,960.508 544.524,932.662C583.602,900.67 619.374,884.792 653.842,884.198C698.63,883.488 735.904,880.288 761.656,875.074C794.82,868.32 800.532,860.144 801.034,855.878C802.436,842.37 761.354,827.558 743.62,821.872C677.288,800.305 647.128,763.335 609.052,716.531L608.64,716.025C584.194,686.052 556.51,652.111 513.964,617.115C506.148,610.716 497.532,607.517 488.112,607.517C484.706,607.517 481.1,607.991 477.492,608.82C433.805,619.366 376.392,690.581 306.954,820.686Z" clip-rule="evenodd" fill-rule="evenodd" fill="#848484"/>
<path d="M1051.034,989.342C1003.933,981.256 950.204,967.82 918.469,958.665C865.543,943.446 842.846,929.891 840.235,912.175C837.925,896.123 852.588,876.742 886.231,851.178C904.61,837.267 928.512,834.295 957.536,842.618C980.534,849.157 1006.745,862.712 1035.468,882.925C1083.272,916.574 1122.338,957.714 1124.246,959.735C1138.306,971.506 1143.93,980.305 1141.42,986.845C1139.01,992.909 1129.368,996 1112.094,996C1097.332,996 1077.046,993.741 1051.034,989.342ZM927.407,841.429C912.142,841.429 898.986,845.709 887.939,854.032C855.902,878.407 841.239,897.193 843.248,911.224C846.06,931.318 883.218,944.635 919.172,954.979C1006.344,980.067 1131.176,1004.561 1138.608,985.18C1139.612,982.564 1138.91,976.144 1122.438,962.351L1122.338,962.232C1122.316,962.212 1122.164,962.054 1121.888,961.768C1117.37,957.077 1079.68,917.942 1033.962,885.779C1005.54,865.803 979.63,852.367 956.933,845.947C946.388,842.974 936.546,841.429 927.407,841.429Z" clip-rule="evenodd" fill-rule="evenodd" fill="#848484"/>
<path d="M1404,926.792C1396.87,918.034 1388.736,909.038 1379.496,900.044C1344.346,865.838 1299.756,837.668 1246.932,816.246C1180.952,789.498 1101.916,773.164 1012.034,767.72C960.616,764.642 861.996,753.872 778.743,716.116C691.07,676.466 642.463,617.878 634.429,542.01C625.09,454.189 634.228,399.745 663.252,370.511C694.987,338.554 752.431,337.134 838.798,366.486C898.752,386.844 947.258,414.776 986.224,437.264C1024.688,459.516 1055.118,477.033 1082.232,480.11C1111.658,483.424 1134.656,469.339 1156.75,434.424C1170.808,412.172 1181.956,391.105 1191.798,372.523C1211.582,335.003 1225.944,307.899 1249.342,297.839C1274.048,287.187 1307.49,296.182 1361.318,327.902C1376.684,336.897 1390.844,346.957 1404,357.373L1404,353.112C1391.246,343.051 1377.488,333.465 1362.724,324.706C1308.092,292.513 1273.948,283.518 1248.338,294.406C1223.934,304.94 1209.474,332.399 1189.288,370.511C1179.546,388.974 1168.398,409.924 1154.44,432.175C1109.046,504.018 1063.352,477.624 987.63,433.95C948.564,411.344 899.858,383.293 839.702,362.936C752.23,333.346 693.882,334.885 661.344,367.67C631.517,397.733 622.077,453.243 631.517,542.366C639.752,619.654 688.961,679.188 777.738,719.43C861.394,757.304 960.414,768.074 1011.934,771.27C1101.514,776.596 1180.148,792.93 1245.828,819.56C1298.25,840.864 1342.538,868.796 1377.386,902.648C1387.63,912.59 1396.468,922.532 1404,932L1404,926.792L1404,926.792Z" fill="#848484"/>
<path d="M1404,851.372C1382.736,832.5 1357.158,813.51 1328.17,795.588C1245.818,744.55 1148.722,709.062 1054.938,695.77C959.948,682.238 890.636,667.402 836.873,648.886C768.164,625.386 724.832,596.07 704.37,559.513C690.527,534.707 687.518,506.103 695.242,474.294C701.059,450.794 711.692,435.245 727.841,426.818C782.507,398.096 887.327,458.271 979.808,511.325C1013.612,530.791 1045.608,549.069 1072.792,561.65C1118.632,582.895 1146.816,587.643 1167.078,577.317C1186.638,567.347 1197.872,544.321 1213.32,512.394C1222.648,493.166 1233.18,471.446 1248.026,447.47C1263.874,421.833 1283.934,408.422 1307.706,407.591C1340.206,406.523 1375.412,429.192 1404,454.117L1404,449.726C1359.564,411.389 1327.568,403.437 1307.706,404.03C1283.032,404.861 1262.168,418.748 1245.718,445.334C1230.772,469.428 1220.24,491.386 1210.812,510.613C1180.52,572.925 1166.678,601.411 1073.894,558.327C1046.812,545.745 1014.916,527.467 981.112,508.121C888.028,454.711 782.507,394.179 726.637,423.614C709.786,432.397 698.251,449.251 692.333,473.463C684.308,506.222 687.418,535.894 701.762,561.65C722.725,598.8 766.559,628.59 836.071,652.328C890.034,670.844 959.546,685.68 1054.636,699.212C1148.02,712.504 1244.714,747.874 1326.764,798.672C1356.154,816.952 1382.434,836.534 1404,856L1404,851.372Z" fill="#848484"/>
<path d="M1403.9,797.148C1346.684,738.566 1269.089,715.134 1208.259,696.908C1149.236,679.155 1106.674,666.374 1111.292,631.816C1112.597,621.757 1124.442,622.467 1145.22,624.597C1164.493,626.491 1188.384,628.976 1210.969,619.982C1237.67,609.33 1256.04,585.306 1267.082,546.488C1274.811,519.268 1287.158,503.646 1303.62,500.333C1333.734,494.179 1373.284,528.736 1404,563.057L1404,558.086C1403.196,557.258 1402.494,556.311 1401.692,555.482C1361.138,511.457 1328.012,491.693 1303.118,496.782C1285.451,500.333 1272.402,516.665 1264.271,545.305C1239.979,630.633 1183.164,624.834 1145.522,621.047C1125.044,618.917 1110.188,617.496 1108.381,631.343C1106.072,648.859 1114.203,662.35 1134.279,673.593C1152.147,683.653 1177.844,691.464 1207.556,700.34C1268.889,718.802 1347.084,742.352 1404,802L1404,797.148L1403.9,797.148Z" fill="#848484"/>
<path d="M1404,765.717C1384.605,751.2 1363.311,730.616 1345.016,708.485C1317.624,675.288 1301.328,644.59 1299.229,621.864C1298.129,609.608 1301.228,599.852 1308.626,592.95C1334.619,568.677 1377.007,609.132 1404,641.377L1404,636.261C1398.402,629.717 1392.303,622.935 1385.905,616.509C1371.009,601.636 1357.213,591.404 1345.116,586.168C1329.72,579.505 1316.724,580.814 1306.727,590.214C1298.529,597.829 1295.03,608.656 1296.23,622.34C1300.429,668.744 1358.912,736.684 1404,770L1404,765.717L1404,765.717Z" fill="#848484"/>
<path d="M1059.692,624.15C1060.038,624.439 1060.23,624.601 1060.262,624.626C1072.19,635.12 1076.298,643.728 1072.79,650.331C1068.782,657.288 1055.854,660 1038.816,660C1015.464,660 984.194,654.93 956.732,648.445C889.883,632.762 826.141,606.114 786.252,577.225C741.352,544.682 726.118,509.426 742.254,475.231C746.564,466.034 753.78,460.138 763.602,457.544C795.272,449.173 854.905,474.877 940.696,533.716C1000.986,574.98 1053.654,619.092 1059.692,624.15ZM1033.102,656.226C1060.864,657.052 1068.28,651.51 1070.186,648.209C1073.392,642.431 1065.574,633.823 1058.458,627.574C1055.854,625.334 859.415,459.549 776.33,459.549C771.92,459.549 767.911,460.02 764.203,460.964C755.283,463.322 748.769,468.628 744.86,476.882C736.842,493.861 736.942,511.077 745.261,528.174C752.778,543.738 767.11,559.185 787.756,574.16C827.344,602.812 890.685,629.343 957.234,644.907C985.796,651.628 1012.758,655.637 1033.102,656.226Z" clip-rule="evenodd" fill-rule="evenodd" fill="#848484"/>
<path d="M956.23,594.725C956.957,595.251 957.36,595.543 957.405,595.569C957.49,595.649 957.586,595.737 957.691,595.833C959.424,597.428 963.505,601.183 961.421,604.834C960.116,607.179 956.1,608 950.678,608C935.818,608 910.616,601.198 904.19,599.439C870.755,590.057 839.73,576.571 821.255,563.319C802.68,549.949 796.254,536.932 802.078,524.618C803.483,521.686 805.893,519.693 809.106,518.754C822.159,514.767 851.076,526.612 895.154,553.702C924.145,571.519 950.442,590.539 956.23,594.725ZM904.793,596.038C938.93,605.537 957.204,605.772 958.911,602.84C959.011,602.605 958.811,601.198 955.598,598.501C952.786,596.39 850.172,521.569 814.729,521.569C812.821,521.569 811.215,521.803 809.709,522.273C807.198,522.976 805.592,524.383 804.588,526.377C799.668,536.697 805.692,548.073 822.661,560.269C840.834,573.404 871.558,586.773 904.793,596.038Z" clip-rule="evenodd" fill-rule="evenodd" fill="#848484"/>
<path d="M364.512,1031.014C354.511,1035.988 346.31,1038 339.609,1038C326.007,1038 318.506,1029.594 314.405,1020.95C287.702,964.946 348.01,784.618 430.021,714.287C454.524,693.33 476.527,684.805 495.329,689.067C510.832,692.619 524.134,704.578 534.934,724.706C545.536,744.361 550.636,767.095 549.936,790.538C549.236,813.864 542.736,836.242 531.234,855.186L528.134,860.278L527.952,860.575C489.804,923.354 450.388,988.22 364.512,1031.014ZM431.821,717.247C394.716,749.097 358.211,807.944 334.208,874.604C311.705,937.12 304.904,993.836 317.006,1019.174C325.107,1036.106 340.609,1038.948 363.312,1027.58C448.523,985.074 487.728,920.544 525.634,858.028L528.734,852.937C539.936,834.584 546.236,812.916 546.936,790.302C547.636,767.568 542.636,745.545 532.434,726.601C522.132,707.42 509.432,695.935 494.829,692.619C491.829,691.909 488.728,691.554 485.628,691.554C469.726,691.554 451.724,700.197 431.821,717.247Z" clip-rule="evenodd" fill-rule="evenodd" fill="#848484"/>
<path d="M393.263,949.61C387.046,952.695 381.931,954 377.82,954C369.998,954 365.686,949.373 363.279,944.508C356.36,930.034 360.571,899.423 374.21,864.66C388.45,828.591 409.81,795.845 431.47,777.336C445.81,765.116 458.646,760.132 469.778,762.624C478.903,764.641 486.825,771.641 493.143,783.506C505.678,806.998 504.876,836.896 490.937,859.795C468.775,896.219 444.607,923.983 393.263,949.61ZM433.275,780.302C412.116,798.455 391.057,830.608 377.018,866.202C363.981,899.423 359.669,929.44 365.987,942.847C370.198,951.746 379.023,952.932 392.16,946.407C442.902,921.135 466.669,893.728 488.53,857.778C501.767,836.066 502.57,807.709 490.636,785.523C484.72,774.607 477.6,768.082 469.276,766.183C467.571,765.827 465.867,765.59 464.062,765.59C454.936,765.59 444.707,770.573 433.275,780.302Z" clip-rule="evenodd" fill-rule="evenodd" fill="#848484"/>
<path d="M416.041,886C417.33,886 418.917,885.651 420.801,884.719C435.478,877.498 442.32,869.579 448.666,859.214C452.831,852.459 453.129,843.492 449.361,836.621C447.377,833.01 444.997,830.914 442.122,830.215C438.75,829.4 434.783,830.914 430.519,834.524C417.529,845.588 406.422,873.073 411.083,882.739C411.777,884.137 413.166,886 416.041,886Z" fill="#848484" stroke="#575757" stroke-width="5" stroke-miterlimit="3.999327"/>
<path d="M1403.698,1558.678C1374.992,1557.136 1347.09,1552.746 1322.398,1545.63C1289.878,1536.258 1262.578,1522.14 1241.3,1503.872C1215.202,1481.45 1198.04,1452.504 1190.11,1417.628C1179.07,1368.634 1161.606,1322.368 1139.624,1283.694C1113.828,1238.26 1082.212,1203.264 1045.476,1179.538C977.926,1135.764 895.724,1131.612 801.274,1167.2C686.852,1210.264 597.824,1255.46 532.783,1288.558C449.777,1330.672 404.008,1353.924 393.569,1328.418C392.666,1326.164 392.566,1323.792 393.369,1321.182C399.291,1301.846 448.372,1275.51 505.282,1245.14C547.638,1222.482 595.716,1196.74 633.556,1169.454C677.318,1137.899 700.302,1109.309 703.814,1082.143C708.734,1043.944 721.782,1017.134 741.454,1004.678C763.836,990.561 794.45,994.238 832.59,1015.592C902.648,1054.739 1073.68,1101.48 1177.564,1101.48C1213.396,1101.48 1241.3,1095.904 1254.248,1082.499C1262.076,1074.432 1264.284,1063.874 1260.772,1051.062C1249.228,1008.711 1262.578,964.937 1291.786,949.396C1328.42,929.941 1368.87,958.175 1403.698,1003.373L1403.698,997.441C1390.048,980.121 1376.198,966.598 1362.246,956.87C1336.652,938.957 1311.158,935.161 1290.582,946.193C1259.968,962.446 1245.916,1007.999 1257.96,1052.13C1261.072,1063.518 1259.166,1072.653 1252.34,1079.77C1230.76,1102.073 1161.002,1103.971 1060.834,1084.871C974.314,1068.382 881.07,1038.606 833.996,1012.27C794.952,990.442 763.434,986.883 740.25,1001.475C719.674,1014.405 706.124,1042.165 701.004,1081.55C693.376,1140.508 588.489,1196.74 504.178,1241.818C444.357,1273.848 397.082,1299.116 390.759,1319.876C389.655,1323.436 389.755,1326.758 391.06,1329.842C396.681,1343.602 410.432,1345.976 435.825,1337.552C459.212,1329.724 492.334,1312.996 534.189,1291.762C599.128,1258.782 688.158,1213.584 802.378,1170.522C896.024,1135.289 977.426,1139.322 1044.272,1182.504C1080.506,1205.992 1111.822,1240.632 1137.316,1285.474C1159.096,1323.91 1176.46,1369.82 1187.4,1418.34C1195.43,1453.928 1212.994,1483.586 1239.694,1506.482C1261.274,1524.988 1288.976,1539.224 1321.896,1548.832C1346.89,1556.068 1375.094,1560.576 1404,1562L1404,1558.678L1403.698,1558.678Z" fill="#848484"/>
<path d="M1403.9,1486.27C1356.884,1499.184 1319.816,1497.17 1291.284,1480.228C1249.193,1455.11 1230.708,1400.372 1217.046,1344.922C1202.58,1286.392 1161.09,1243.146 1127.737,1208.432C1105.335,1185.091 1087.654,1166.726 1086.851,1152.035C1086.65,1147.888 1087.855,1144.215 1090.467,1140.779C1099.609,1128.694 1128.742,1136.277 1165.711,1145.874C1195.346,1153.575 1232.315,1163.172 1270.791,1165.778C1288.572,1166.963 1300.226,1163.409 1306.554,1154.878C1315.596,1142.556 1312.18,1121.94 1308.564,1100.14C1303.44,1069.69 1298.216,1038.292 1322.628,1020.994C1330.766,1015.189 1339.806,1014.122 1349.45,1017.44C1365.726,1023.245 1384.31,1042.439 1404,1073.363L1404,1067.32C1387.926,1042.676 1369.14,1020.757 1350.354,1014.122C1339.908,1010.331 1330.062,1011.634 1321.122,1017.914C1294.902,1036.515 1300.628,1070.638 1305.65,1100.851C1309.166,1121.822 1312.482,1141.608 1304.344,1152.627C1298.718,1160.21 1287.768,1163.409 1270.992,1162.224C1232.717,1159.617 1195.949,1150.02 1166.414,1142.319C1127.135,1132.13 1098.705,1124.665 1088.358,1138.291C1085.243,1142.438 1083.736,1147.058 1084.038,1152.153C1084.841,1168.266 1102.924,1187.105 1125.929,1210.92C1158.98,1245.28 1200.169,1288.17 1214.333,1345.752C1228.197,1401.912 1246.882,1457.48 1290.08,1483.19C1306.656,1493.024 1326.044,1498 1348.446,1498C1365.222,1498 1383.708,1495.274 1404,1489.706L1404,1486.27L1403.9,1486.27Z" fill="#848484"/>
<path d="M1404,1395.09C1380.369,1402.324 1351.531,1406.474 1328.101,1395.92C1310.878,1388.212 1298.362,1373.27 1290.952,1351.686C1280.738,1321.802 1262.815,1294.053 1248.396,1271.758C1234.178,1249.819 1221.961,1230.845 1225.766,1222.307C1228.17,1216.97 1236.881,1214.954 1252.401,1216.022L1257.608,1216.377C1304.069,1219.698 1327.5,1221.358 1339.015,1208.906C1344.622,1202.858 1347.326,1193.371 1347.626,1178.311C1348.127,1157.558 1357.439,1140.244 1370.857,1135.145C1380.87,1131.35 1392.185,1134.314 1404,1143.327L1404,1138.939C1388.78,1128.029 1376.965,1129.097 1369.955,1131.824C1355.336,1137.398 1345.123,1156.016 1344.622,1178.311C1344.322,1192.304 1341.919,1200.961 1337.012,1206.298C1326.398,1217.801 1302.066,1216.022 1257.808,1212.82L1252.602,1212.464C1235.479,1211.278 1226.167,1213.887 1223.063,1220.647C1218.357,1231.201 1229.872,1249.108 1245.893,1274.011C1260.212,1296.187 1278.035,1323.7 1288.048,1353.11C1295.758,1375.642 1308.875,1391.176 1326.899,1399.36C1337.513,1404.102 1349.128,1406 1360.743,1406C1376.063,1406 1391.283,1402.798 1403.9,1399.004L1403.9,1395.09L1404,1395.09Z" fill="#848484"/>
<path d="M1404,1328.42C1379.715,1329.136 1345.312,1325.557 1338.836,1300.5C1334.89,1285.227 1337.622,1270.432 1346.324,1258.858C1358.061,1243.227 1378.805,1235.113 1404,1235.59L1404,1232.011C1377.894,1231.653 1356.341,1240.125 1344.098,1256.471C1334.586,1269.119 1331.652,1285.108 1335.902,1301.574C1340.556,1319.472 1357.758,1329.614 1387.001,1331.642C1390.846,1331.881 1394.691,1332 1398.334,1332C1400.256,1332 1402.077,1332 1403.899,1331.881L1403.899,1328.42L1404,1328.42Z" fill="#848484"/>
<path d="M112.66,891.932C150.722,910.322 187.072,928 211.64,928C218.286,928 224.026,926.694 228.758,923.848C235.404,919.814 239.634,912.576 241.446,902.492C245.776,878.762 224.328,855.864 191.804,821.22C159.583,786.932 115.48,740.068 76.512,669.831C50.131,622.254 25.159,591.644 2.101,578L2.101,581.915C24.354,595.559 48.419,625.458 73.995,671.729C113.265,742.441 157.468,789.424 189.791,823.83C221.508,857.644 242.554,879.95 238.526,901.662C236.814,910.796 233.188,916.966 227.348,920.526C206.506,933.458 161.496,911.628 113.869,888.492C82.453,873.306 49.929,857.526 21.736,850.406C14.687,848.628 8.042,847.44 2,846.848L2,850.406C7.84,851 14.284,852.068 21.131,853.848C49.023,861.084 81.345,876.746 112.66,891.932Z" fill="#848484"/>
<path d="M97.162,828C107.515,828 114.084,824.934 116.772,818.919C123.342,803.822 103.533,775.045 57.744,733.058C37.039,714.188 15.538,696.733 2,686L2,690.128C47.292,725.864 124.536,793.444 114.184,817.267C111.994,822.339 106.021,824.58 97.66,824.58C75.661,824.58 36.641,809.719 2,793.915L2,797.689C9.466,801.11 17.329,804.53 25.293,807.832C57.644,821.277 81.733,828 97.162,828Z" fill="#848484"/>
<path d="M529.585,1105.746C535.026,1094.95 540.77,1085.221 546.816,1076.678C566.062,1049.39 594.982,1035.153 624.103,1038.475C641.233,1040.492 649.899,1047.611 650,1059.831C650.201,1100.289 545.707,1184.763 498.65,1190.695C491.798,1191.644 486.558,1192 482.628,1192C474.164,1192 471.342,1190.22 470.335,1187.61C468.319,1182.153 475.574,1174.322 487.666,1161.271C500.564,1147.39 518.198,1128.407 529.585,1105.746ZM590.246,1135.526C625.413,1106.102 647.279,1077.034 647.178,1059.95C647.077,1049.865 639.319,1043.933 624.103,1042.153C621.382,1041.797 618.662,1041.679 615.941,1041.679C590.548,1041.679 566.163,1055.204 549.335,1078.933C543.39,1087.238 537.747,1096.967 532.406,1107.526C520.922,1130.454 503.203,1149.537 490.233,1163.504L489.883,1163.881L489.426,1164.376C480.902,1173.594 472.17,1183.037 473.357,1186.068C474.063,1187.966 479,1189.627 498.549,1187.136C520.113,1184.407 556.086,1164.119 590.246,1135.526Z" clip-rule="evenodd" fill-rule="evenodd" fill="#848484"/>
<path d="M100.098,471.378C122.69,520.474 146.888,570.994 170.484,607.876C196.49,648.314 219.082,668 239.664,668C239.866,668 240.066,668 240.268,668C260.75,667.644 278.824,648.196 295.492,608.824C330.534,526.166 372.002,475.648 415.478,462.958C445.2,454.302 475.724,462.84 506.146,488.574C529.542,508.378 546.21,514.9 556.852,508.616C572.616,499.366 573.52,464.856 574.524,425.01C575.628,381.25 576.834,331.56 599.024,308.792C609.366,298.238 623.222,294.324 641.396,296.696C688.988,303.1 734.272,294.56 772.328,272.266C808.474,251.038 836.488,218.664 853.256,178.58C869.22,140.513 873.84,97.583 866.81,54.654C863.898,36.747 858.978,19.196 852.252,2L848.838,2C872.334,60.583 873.638,122.25 850.646,177.038C834.178,216.41 806.666,248.192 771.122,269.064C733.57,291.122 688.788,299.424 641.798,293.138C623.02,290.648 607.96,294.916 597.116,306.064C573.922,329.782 572.716,380.302 571.512,424.772C570.608,461.892 569.704,496.994 555.548,505.294C545.908,510.988 530.344,504.464 507.854,485.49C476.626,459.164 445.3,450.388 414.676,459.282C370.296,472.326 328.124,523.44 292.78,607.044C276.614,645.112 259.446,663.85 240.268,664.206C240.066,664.206 239.866,664.206 239.664,664.206C195.987,664.206 148.093,568.028 102.709,469.362C74.896,408.882 41.059,367.376 2,345.318L2,349.23C40.054,371.526 72.988,412.32 100.098,471.378Z" fill="#848484"/>
<path d="M137.601,320C154.952,320 170.197,317.044 182.734,311.012C211.318,297.294 225.56,269.264 225.06,227.4C224.558,186.362 233.886,155.85 253.544,134.208C301.986,80.516 406.294,89.741 516.822,99.675C533.07,101.094 549.92,102.632 566.468,103.933C582.616,105.234 597.46,105.825 611.1,105.825C673.384,105.825 708.688,92.698 716.412,66.561C721.828,48.112 712.8,25.76 698.358,4L694.446,4C709.29,25.642 718.718,47.757 713.604,65.497C704.776,95.536 655.432,107.362 566.77,100.503C550.22,99.202 533.37,97.665 517.122,96.246C405.994,86.311 300.984,76.969 251.538,131.725C231.278,154.195 221.65,185.534 222.15,227.636C222.652,267.846 209.012,294.928 181.731,307.938C146.627,324.73 89.559,317.044 24.968,286.886C17.245,283.338 9.623,279.436 2,275.414L2,279.318C9.221,283.22 16.543,286.886 23.865,290.198C66.089,309.83 105.406,320 137.601,320Z" fill="#848484"/>
<path d="M80.285,207.764C116.37,205.156 146.942,182.767 171.3,141.185L175.309,134.314C204.88,83.847 219.714,58.495 241.666,47.951C263.618,37.408 293.388,41.199 352.728,48.899C359.946,49.847 367.664,50.794 375.782,51.861C446.048,60.864 496.968,63.826 531.45,60.983C564.628,58.258 583.474,50.321 590.69,35.986C595.1,27.22 594.9,16.557 591.292,4L588.184,4C591.792,16.084 592.194,26.153 588.084,34.209C581.468,47.359 562.924,54.941 531.25,57.547C496.968,60.272 446.25,57.31 376.084,48.307C367.964,47.24 360.246,46.293 353.03,45.345C293.188,37.526 263.216,33.617 240.464,44.634C217.71,55.652 202.674,81.24 172.803,132.3L168.794,139.171C144.938,179.805 115.167,201.721 80.084,204.21C62.042,205.512 35.88,201.84 2,183.122L2,187.031C31.77,203.261 55.627,208 73.369,208C75.774,208 78.08,207.882 80.285,207.764Z" fill="#848484"/>
<path d="M120.953,123.412C135.248,115.529 145.044,102.118 149.942,83.529C157.239,56.471 158.839,29.176 157.639,4L154.64,4C155.84,28.824 154.24,55.765 147.043,82.471C142.345,100.118 133.049,112.824 119.554,120.235C87.467,138 37.486,123.412 2,109.059L2,112.824C25.891,122.471 56.079,132 83.268,132C96.963,131.882 109.958,129.529 120.953,123.412Z" fill="#848484"/>
<path d="M740.908,89.438C720.928,135.763 632.974,129.484 631.97,129.366C582.672,129.366 536.888,125.219 496.526,121.427C436.484,115.859 384.574,111.12 346.22,122.849C325.938,129.01 310.175,139.555 298.126,154.957C285.074,171.544 276.238,193.937 271.017,223.202C253.647,321.066 208.164,332.794 171.517,342.154C149.428,347.842 130.351,352.7 124.026,375.922C118.303,397.13 124.929,439.308 141.094,483.382C158.364,530.656 181.858,567.266 203.947,581.246C211.076,585.748 218.205,588 224.932,588C237.783,588 249.932,579.944 260.575,564.186C276.74,540.252 289.893,514.188 302.645,488.952C326.44,441.796 346.922,401.158 378.75,392.034C398.33,386.466 421.122,393.338 448.23,413.362C484.176,439.782 509.076,448.076 524.438,438.716C543.514,427.104 545.422,391.206 547.43,353.054C550.14,301.872 552.952,248.912 597.532,251.282C607.772,251.754 617.612,252.11 627.15,252.11C723.538,252.11 786.09,225.216 813.1,171.9C834.386,130.076 828.964,79.604 820.73,44.771C816.814,28.066 811.894,13.374 807.578,2L804.264,2C808.682,13.374 813.802,28.658 817.818,45.837C832.378,107.802 821.834,147.611 810.488,170.123C781.372,227.466 709.684,253.65 597.632,247.846C576.246,246.778 561.988,257.442 554.056,280.546C547.128,300.568 545.724,327.226 544.418,353.054C542.51,390.14 540.602,425.09 523.032,435.754C508.674,444.522 484.778,436.228 449.736,410.518C421.824,390.02 398.33,382.912 377.948,388.836C344.914,398.314 324.03,439.546 299.934,487.41C287.283,512.528 274.13,538.476 258.065,562.172C242.402,585.274 224.631,590.606 205.152,578.284C183.666,564.66 160.573,528.76 143.604,482.198C128.042,439.546 121.214,397.366 126.636,377.224C132.459,355.898 149.829,351.396 171.918,345.828C190.393,341.088 211.277,335.756 229.952,318.932C251.539,299.502 265.897,268.46 273.728,224.03C283.467,168.938 305.958,138.844 346.722,126.404C363.79,121.19 383.772,119.295 405.96,119.295C432.868,119.295 463.292,122.138 496.024,125.1C536.486,128.773 582.27,133.038 631.568,133.038C631.568,133.038 631.568,133.038 631.67,133.038C631.87,133.038 654.562,134.816 679.362,130.55C713.096,124.863 734.584,111.594 743.418,91.215C752.958,69.059 746.832,39.203 725.146,2.118L721.53,2.118C743.62,38.847 750.046,68.112 740.908,89.438Z" fill="#848484"/>
<path d="M747.04,132.788C730.574,157.118 680.772,167.206 603.16,161.984C544.222,158.067 489.6,146.555 489.098,146.436C488.798,146.318 455.464,139.315 417.912,147.979C395.722,152.964 376.444,162.34 360.48,175.87C340.499,192.722 325.74,215.984 316.703,244.942C299.233,301.08 279.654,339.414 256.761,362.2C236.881,382.02 217.503,387.242 199.43,390.922C173.023,396.262 164.087,416.202 161.276,431.986C155.653,462.844 169.208,504.5 190.293,521.236C196.016,525.746 201.839,528 207.462,528C212.683,528 217.804,526.102 222.623,522.184C242.403,506.282 262.685,475.662 284.172,443.38C325.037,381.784 367.308,318.17 409.778,350.096C416.004,354.724 422.028,359.352 427.752,363.862C458.876,387.954 483.576,407.062 499.14,398.042C508.376,392.702 513.598,378.578 515.506,353.418C519.422,301.436 526.65,262.27 549.242,240.196C565.306,224.41 588.198,218.596 619.324,222.156C706.476,232.244 763.908,213.966 790.114,168.037C811.098,131.245 807.484,83.416 800.756,49.71C796.942,30.602 791.72,13.75 787.604,2L784.39,2C788.508,13.631 793.928,30.84 797.844,50.541C804.372,83.535 807.886,130.296 787.604,166.019C762.1,210.762 705.572,228.446 619.626,218.596C587.696,214.916 564.102,221.088 547.334,237.466C524.04,260.372 516.51,300.248 512.494,353.18C510.686,376.68 505.966,390.328 497.834,394.958C483.778,403.028 459.78,384.514 429.458,361.014C423.634,356.504 417.61,351.876 411.386,347.246C391.204,332.056 369.416,335.854 344.816,358.878C323.33,378.816 302.245,410.624 281.862,441.362C260.577,473.524 240.395,503.788 221.017,519.454C209.671,528.594 199.028,523.964 192,518.386C171.818,502.364 158.866,462.368 164.188,432.816C166.898,418.1 175.232,399.468 199.932,394.482C218.406,390.684 238.186,385.344 258.669,364.93C281.963,341.668 301.843,302.86 319.514,246.13C328.35,217.764 342.708,195.096 362.086,178.718C377.648,165.544 396.626,156.406 418.314,151.421C432.37,148.217 445.824,147.148 457.17,147.148C475.644,147.148 488.296,149.878 488.496,149.878C488.998,149.997 543.82,161.509 602.958,165.426C682.68,170.766 731.978,160.56 749.35,134.924C766.518,109.645 770.534,75.702 760.896,36.418C757.582,23.007 753.264,11.139 749.45,2L746.036,2C749.952,11.02 754.57,23.363 757.984,37.367C764.51,64.071 767.924,102.049 747.04,132.788Z" fill="#848484"/>
<path d="M427.624,179.796C438.279,173.61 450.129,172.302 461.083,176.227C471.738,180.034 479.804,188.004 484.982,199.9C500.517,235.705 486.775,298.633 477.215,332.893C474.725,341.933 471.639,346.691 467.556,347.762C466.958,347.881 466.361,348 465.763,348C459.13,348 451.512,338.71 442.028,327.145L441.864,326.945C432.802,315.882 422.546,303.391 410.198,294.589C389.585,279.838 379.427,263.303 380.025,245.222C381.12,213.699 415.675,186.814 427.624,179.796ZM466.958,344.312C469.846,343.48 472.336,339.435 474.427,331.822C496.334,253.073 488.766,216.434 482.294,201.684C477.514,190.74 470.045,183.365 460.187,179.796C456.303,178.369 452.32,177.655 448.237,177.655C441.665,177.655 435.093,179.439 428.919,183.008C417.367,189.788 384.008,215.602 383.012,245.341C382.415,261.995 392.174,277.578 411.791,291.496C424.32,300.334 435.089,313.493 443.809,324.147L444.055,324.447L444.168,324.585C453.48,335.946 461.503,345.734 466.958,344.312Z" clip-rule="evenodd" fill-rule="evenodd" fill="#848484"/>
<path d="M433,235.924C436.452,233.899 440.298,233.423 443.849,234.733C447.399,236.043 450.062,238.663 451.739,242.713C456.67,254.148 452.429,273.801 449.47,284.521C448.977,286.546 447.991,289.285 445.821,289.881C445.525,290 445.328,290 445.032,290C442.59,290 440.245,287.079 437.133,283.204L437.043,283.092C434.381,279.757 431.323,275.945 427.674,273.325C421.066,268.56 417.811,263.081 418.008,257.006C418.378,245.622 431.131,237.167 432.817,236.049C432.93,235.973 432.994,235.931 433,235.924ZM445.229,286.308C445.525,286.308 446.117,285.355 446.709,283.33C448.879,275.111 453.711,254.862 449.273,244.262C447.892,241.165 445.92,239.14 443.158,238.187C442.073,237.83 440.89,237.591 439.805,237.591C437.931,237.591 436.156,238.068 434.381,239.14C431.718,240.807 421.362,248.55 421.066,257.245C420.869,261.771 423.63,266.178 429.252,270.228C433.197,273.086 436.55,277.255 439.213,280.59C439.347,280.752 439.483,280.917 439.621,281.084C441.717,283.623 444.212,286.643 445.229,286.308Z" clip-rule="evenodd" fill-rule="evenodd" fill="#848484"/>
<path d="M1404,276.862C1348.59,230.142 1281.856,191.249 1228.95,213.068C1190.674,228.838 1164.122,274.846 1150.194,349.786C1143.782,384.412 1127.75,406.23 1102.598,414.648C1055.505,430.538 980.155,394.016 927.55,329.628C885.366,278.166 868.432,221.604 881.057,174.53C892.78,130.893 896.087,83.462 890.977,33.779C889.875,23.225 888.372,12.672 886.568,2L883.462,2C885.366,12.909 886.869,23.581 887.971,34.253C893.081,83.462 889.774,130.419 878.251,173.581C865.226,221.96 882.46,279.708 925.446,332.238C950.496,362.83 981.958,388.562 1014.122,404.688C1036.968,416.19 1059.012,422 1078.45,422C1087.468,422 1095.886,420.696 1103.5,418.206C1129.352,409.55 1146.586,386.19 1153.2,350.616C1166.928,276.98 1192.678,231.92 1229.952,216.506C1282.258,194.925 1348.89,234.53 1404,281.368L1404,276.862L1404,276.862Z" fill="#848484"/>
<path d="M1404,184.454C1363.082,143.106 1298.896,106.496 1246.744,118.937C1214.352,126.638 1189.68,152.11 1173.534,194.406C1151.168,252.934 1122.786,293.926 1089.089,316.438C1052.984,340.488 1020.891,336.46 1000.332,328.878C975.46,319.636 953.998,300.206 939.857,274.142C925.215,247.246 919.799,215.496 924.713,184.81C934.842,121.069 938.754,59.698 936.246,2L933.238,2C935.645,59.343 931.834,120.595 921.805,184.099C916.79,215.732 922.306,248.314 937.35,275.918C951.892,302.694 973.956,322.598 999.53,332.076C1010.261,336.104 1021.293,338 1032.324,338C1052.082,338 1072.039,331.72 1090.593,319.4C1124.892,296.534 1153.676,254.948 1176.342,195.709C1192.086,154.48 1215.956,129.836 1247.346,122.254C1272.82,116.212 1303.408,121.661 1335.802,138.248C1360.072,150.688 1384.544,168.934 1404,189.075L1404,184.454L1404,184.454Z" fill="#848484"/>
<path d="M749.15,1621.687C746.567,1618.793 743.289,1617.636 739.514,1618.099C726.698,1619.719 709.213,1641.133 696,1660L699.874,1660C712.492,1642.175 728.586,1623.076 739.812,1621.571C742.693,1621.224 745.077,1622.034 747.064,1624.234C753.919,1631.757 761.569,1645.531 768.523,1660L772,1660C764.748,1644.721 756.502,1629.905 749.15,1621.687Z" fill="#848484"/>
<path d="M1404,116.341C1395.754,117.17 1386.602,117.17 1376.848,116.104C1342.556,112.312 1301.124,96.669 1263.11,72.969C1219.064,45.476 1182.258,86.478 1139.719,133.879C1107.338,170.023 1070.632,210.906 1025.177,225.72C1009.188,230.934 996.818,228.208 988.27,217.898C959.207,182.466 978.616,66.451 991.891,4L988.773,4C984.751,23.079 980.125,46.898 976.504,71.784C965.342,149.166 968.56,199.175 986.058,220.506C992.393,228.208 1000.539,232 1010.394,232C1015.221,232 1020.35,231.052 1025.982,229.274C1072.04,214.344 1109.148,173.104 1141.73,136.605C1183.464,90.152 1219.466,49.979 1261.602,76.287C1300.42,100.58 1341.248,115.985 1376.446,119.778C1386.3,120.844 1395.552,120.963 1403.9,120.133L1403.9,116.341L1404,116.341Z" fill="#848484"/>
<path d="M1033.074,159.646C1034.676,159.882 1036.177,160 1037.779,160C1064.404,160 1094.132,125.517 1110.047,104.024C1131.167,75.682 1151.686,38.837 1166,4L1162.697,4C1148.584,38.011 1128.465,73.911 1107.845,101.662C1079.418,139.924 1052.993,159.291 1033.475,156.103C1025.367,154.804 1020.062,150.435 1017.26,142.995C1006.75,114.653 1035.176,48.757 1057.498,4.118L1053.994,4.118C1049.59,13.093 1044.886,22.777 1040.381,32.815C1015.858,87.255 1007.15,124.808 1014.557,144.412C1017.66,153.033 1023.966,158.229 1033.074,159.646Z" fill="#848484"/>
<path d="M1072.939,79.882C1073.548,80 1074.258,80 1074.968,80C1081.057,80 1090.698,75.745 1104.093,57.9C1114.038,44.782 1123.577,26.936 1129.159,11.336C1130.072,8.736 1131.087,5.545 1132,2.118L1128.854,2.118C1128.144,4.6 1127.332,7.2 1126.419,9.918C1114.951,42.064 1088.77,78.818 1073.446,76.218C1070.605,75.745 1068.778,74.327 1067.763,71.727C1062.588,58.018 1083.594,17.482 1092.626,2L1088.973,2C1082.478,13.464 1058.833,56.6 1065.023,73.145C1066.343,76.927 1068.981,79.173 1072.939,79.882Z" fill="#848484"/>
<path d="M1403.9,68.149C1390.192,76.985 1374.283,80.209 1356.472,77.463C1336.561,74.478 1314.248,64.448 1290.034,47.612C1268.921,32.925 1250.01,15.493 1236.603,2L1232,2C1245.708,15.97 1265.82,34.955 1288.533,50.716C1313.147,67.791 1335.86,78.06 1356.172,81.045C1360.375,81.642 1364.477,82 1368.579,82C1381.587,82 1393.394,78.776 1404,72.209L1404,68.149L1403.9,68.149Z" fill="#848484"/>
<path d="M762.8,1064.294C781.9,1050.915 814.998,1050.557 861.196,1063.338C893.114,1072.235 920.54,1084.596 924.476,1086.369C924.608,1086.429 924.716,1086.477 924.794,1086.512C954.492,1093.082 958.192,1098.935 957.992,1103.236C957.792,1109.089 949.792,1117.092 889.395,1127.843C851.897,1134.533 807.199,1140.027 774.6,1143.969L766.5,1144.925C760.6,1145.642 755.301,1146 750.501,1146C732.201,1146 721.502,1140.744 718.702,1130.471C713.602,1111.956 737.101,1082.332 762.8,1064.294ZM888.795,1124.379C948.094,1113.748 954.692,1105.983 954.792,1103.116C954.892,1101.683 952.792,1096.427 923.894,1089.977L923.594,1089.857C923.578,1089.851 923.49,1089.811 923.33,1089.738C920.35,1088.379 892.671,1075.761 860.396,1066.803C842.897,1061.905 821.998,1057.605 802.999,1057.605C788.099,1057.605 774.3,1060.352 764.2,1067.4C751.501,1076.359 739.601,1087.946 731.502,1099.294C723.002,1111.359 719.402,1121.99 721.402,1129.396C724.502,1140.386 739.901,1144.567 766,1141.341L774.2,1140.505C776.609,1140.205 779.084,1139.898 781.617,1139.583C813.352,1135.642 854.161,1130.574 888.795,1124.379Z" clip-rule="evenodd" fill-rule="evenodd" fill="#848484"/>
<path d="M784.041,313.637C783.246,304.27 794.072,293.265 816.121,280.737C830.622,272.541 847.805,275.117 859.922,287.41C869.457,297.128 879.786,310.944 874.621,322.418C870.648,331.317 858.035,336 841.25,336C830.026,336 816.916,333.892 803.21,329.56C790.795,325.697 784.537,320.428 784.041,313.637ZM803.905,326.165C835.588,336.234 866.08,333.775 871.94,320.779C875.317,313.403 870.45,302.748 857.935,290.103C850.983,283.195 842.342,279.566 833.602,279.566C828.04,279.566 822.478,280.971 817.313,283.898C797.151,295.372 786.325,305.793 786.921,313.286C787.318,318.32 793.178,322.77 803.905,326.165Z" clip-rule="evenodd" fill-rule="evenodd" fill="#848484"/>
<path d="M1100.3,1623.39C1048.046,1615.596 1017.356,1563.398 978.642,1497.266C967.81,1478.844 956.576,1459.712 943.94,1439.872C912.246,1390.155 876.742,1360.277 838.528,1351.066C795.1,1340.673 747.36,1356.734 696.71,1398.776C641.046,1444.95 560.508,1519.232 491.405,1588.198C472.048,1607.566 446.773,1633.31 422,1660L426.413,1660C446.071,1638.98 468.437,1615.832 493.31,1590.914C562.314,1522.066 642.752,1447.785 698.314,1401.728C792.694,1323.432 874.534,1337.012 941.432,1442.116C953.968,1461.838 965.202,1480.969 976.034,1499.392C1015.25,1566.234 1046.24,1618.904 1099.798,1626.934C1137.81,1632.602 1159.576,1643.704 1164.79,1660L1168,1660C1163.086,1641.696 1140.318,1629.414 1100.3,1623.39Z" fill="#848484"/>
<path d="M814.61,1486.557C795.6,1476.777 776.086,1477.955 756.573,1489.974C708.192,1519.666 664.337,1554.779 626.215,1594.487C602.779,1618.878 585.076,1641.265 572,1660L576.023,1660C605.796,1617.935 663.331,1551.127 757.881,1493.037C776.59,1481.608 795.198,1480.43 813.302,1489.738C849.816,1508.473 878.382,1566.209 895.884,1611.455C902.622,1628.658 908.254,1645.507 912.782,1660L916,1660C911.374,1645.154 905.64,1627.833 898.7,1610.041C872.95,1543.468 844.584,1501.874 814.61,1486.557Z" fill="#848484"/>
<path d="M1223.641,932.807C1226.482,933.642 1229.119,934 1231.655,934C1245.247,934 1254.782,922.664 1258.332,910.493C1262.593,895.578 1259.245,875.531 1241.798,866.94C1213.599,852.979 1193.819,848.803 1182.864,854.411C1177.894,856.917 1175.561,862.883 1176.068,871.236C1176.778,881.855 1182.154,895.1 1190.472,906.794C1199.804,919.92 1211.571,929.108 1223.641,932.807Z" fill="#848484" stroke="#575757" stroke-width="5" stroke-miterlimit="3.999327"/>
<path d="M343.972,1247.663C340.432,1239.123 341.039,1226.786 350.952,1219.906C365.922,1209.586 386.153,1214.331 394.144,1222.397C397.583,1225.837 398.797,1229.87 397.482,1233.666C394.852,1241.732 384.736,1250.036 367.541,1258.221C365.012,1259.407 362.483,1260 360.156,1260C352.671,1260 346.804,1254.306 343.972,1247.663ZM366.428,1254.899C382.612,1247.189 392.424,1239.36 394.751,1232.361C395.762,1229.396 393.941,1226.786 392.121,1225.125C387.872,1220.855 379.477,1217.652 370.575,1217.652C364.405,1217.652 358.032,1219.194 352.469,1222.99C344.174,1228.684 343.567,1238.648 346.703,1246.003C349.839,1253.357 357.324,1259.288 366.428,1254.899Z" clip-rule="evenodd" fill-rule="evenodd" fill="#848484"/>
<path d="M503.593,1539.135C499.699,1551.059 457.465,1577.073 443.486,1583.938C440.491,1585.503 437.696,1586.106 434.9,1585.985C426.313,1585.985 419.624,1579.361 416.329,1571.412C412.135,1561.296 412.934,1546.723 424.316,1538.654C444.285,1524.442 492.31,1522.154 501.896,1532.03C503.892,1533.957 504.491,1536.486 503.593,1539.135ZM425.814,1541.785C416.029,1548.77 415.33,1560.934 419.025,1569.847C422.719,1578.759 431.605,1585.985 442.288,1580.565C459.961,1571.774 497.602,1547.205 500.697,1537.811C500.997,1536.968 501.097,1536.004 499.899,1534.8C491.312,1526.008 444.086,1528.778 425.814,1541.785Z" clip-rule="evenodd" fill-rule="evenodd" fill="#848484"/>
<path d="M83.224,83.831C99.369,70.609 93.988,28.562 88.705,2L85.616,2C87.011,8.67 88.307,16.413 89.403,24.512C91.994,45.119 92.792,71.681 81.53,80.972C68.375,91.693 41.665,77.637 2,39.163L2,43.809C32.596,73.23 55.817,88 71.364,88C75.949,87.881 79.935,86.571 83.224,83.831Z" fill="#848484"/>
<path d="M679.744,868C664.878,868 649,866.252 637.673,861.24C621.492,854.13 620.683,843.523 622.908,835.831C625.234,827.555 629.987,821.494 637.167,817.881C650.011,811.471 670.238,812.986 697.241,822.543C717.164,829.653 733.649,838.628 733.851,838.745C742.346,843.64 742.649,848.302 741.537,851.333C738.2,860.074 717.164,865.203 698.656,867.068C692.892,867.65 686.419,868 679.744,868ZM638.381,821.028C632.01,824.175 627.762,829.537 625.739,836.88C623.211,845.971 627.56,853.081 638.887,857.976C652.236,863.804 675.092,865.902 698.454,863.571C719.996,861.356 736.581,855.762 738.806,849.934C739.919,846.903 735.975,843.873 732.536,841.892C731.525,841.309 687.633,817.531 656.079,817.531C649.506,817.531 643.438,818.464 638.381,821.028Z" clip-rule="evenodd" fill-rule="evenodd" fill="#848484"/>
<path d="M1223.022,1546.856C1170.056,1535.494 1163.736,1493.006 1155.712,1439.156C1146.684,1379.034 1135.548,1304.236 1054.496,1244.587C1013.868,1214.762 974.946,1196.063 935.424,1187.423C900.112,1179.73 865.004,1180.203 828.288,1188.961C760.076,1205.294 695.674,1248.847 633.278,1290.862C574.896,1330.273 514.508,1371.104 449.504,1391.224C414.596,1402.112 381.292,1406.136 347.686,1403.77C309.968,1401.048 272.852,1390.278 234.332,1370.749C167.022,1336.664 100.113,1324.829 35.511,1335.48C23.574,1337.492 11.737,1340.215 0,1343.765L0,1347.434C11.937,1343.883 23.875,1341.043 36.013,1339.031C100.113,1328.379 166.42,1340.215 233.228,1373.945C280.678,1397.97 324.614,1407.912 366.044,1407.912C466.056,1407.912 551.424,1350.274 634.784,1294.057C699.786,1250.149 761.078,1208.726 828.89,1192.512C865.204,1183.754 899.912,1183.281 934.822,1190.973C974.044,1199.495 1012.664,1218.076 1052.89,1247.664C1088.502,1273.819 1132.84,1306.366 1152.802,1439.748C1156.916,1467.56 1160.526,1491.586 1170.056,1510.878C1180.59,1532.298 1197.342,1544.844 1222.52,1550.288C1297.054,1566.384 1341.392,1591.83 1361.956,1630.412C1366.872,1639.526 1370.482,1649.466 1372.89,1660L1376,1660C1373.492,1648.756 1369.78,1638.342 1364.464,1628.518C1343.398,1589.108 1298.458,1563.07 1223.022,1546.856Z" fill="#848484"/>
<path d="M1164.67,1585.706C1101.582,1574.584 1095.664,1552.226 1082.826,1503.484C1071.592,1461.014 1054.642,1396.656 988.344,1303.314C899.178,1177.676 804.596,1256.229 695.07,1347.205C584.04,1439.482 458.164,1543.944 304.508,1468.702C245.632,1439.836 186.255,1425.64 127.881,1426.232C84.452,1426.705 41.423,1435.46 0,1452.258L0,1456.044C41.423,1439.126 84.351,1430.372 127.881,1429.899C185.854,1429.189 244.83,1443.504 303.304,1472.134C372.51,1506.086 442.418,1506.678 516.84,1474.144C581.934,1445.634 640.308,1397.129 696.776,1350.281C750.938,1305.325 802.09,1262.854 849.932,1247.712C902.79,1230.912 946.018,1249.368 986.038,1305.799C1051.934,1398.667 1068.784,1462.552 1079.918,1504.786C1092.756,1553.526 1099.274,1578.016 1164.268,1589.49C1202.282,1596.234 1226.052,1612.796 1234.98,1638.706C1237.186,1645.212 1238.49,1652.31 1238.992,1660L1242,1660C1241.598,1651.838 1240.194,1644.266 1237.788,1637.404C1228.36,1609.958 1203.786,1592.686 1164.67,1585.706Z" fill="#848484"/>
<path d="M852.934,1425.838C825.06,1403.981 787.66,1404.69 741.838,1428.319C705.442,1446.985 663.631,1480.066 617.508,1526.379C570.382,1573.873 528.27,1625.856 502,1660L506.011,1660C532.281,1625.856 573.39,1575.29 619.413,1528.978C665.335,1482.783 706.846,1449.939 742.942,1431.39C787.762,1408.352 824.158,1407.407 851.13,1428.673C913.796,1477.939 947.086,1561.113 976.464,1634.48C979.974,1643.106 983.282,1651.612 986.692,1659.882L990,1659.882C986.39,1651.14 982.78,1642.16 979.172,1632.944C949.792,1559.223 916.304,1475.576 852.934,1425.838Z" fill="#848484"/>
<path d="M771.255,1552.053C758.268,1541.082 741.484,1541.321 721.403,1552.769C705.619,1561.831 687.736,1577.811 668.255,1600.349C649.673,1621.933 632.989,1645.424 622,1662L625.896,1662C657.066,1615.612 728.497,1520.333 769.457,1554.915C795.931,1577.334 811.416,1621.813 824.804,1662L828,1662C814.413,1621.098 798.728,1575.306 771.255,1552.053Z" fill="#848484"/>
<path d="M278.592,1548.174C252.81,1540.397 226.124,1532.384 202.148,1522.839C142.657,1498.918 73.736,1519.068 26.384,1540.161C17.055,1544.285 8.226,1548.645 0,1553.005L0,1556.894C8.527,1552.416 17.757,1547.82 27.488,1543.46C74.338,1522.603 142.556,1502.689 201.144,1526.256C225.12,1535.919 251.906,1543.932 277.79,1551.709C335.976,1569.149 390.952,1585.646 394.764,1615.576C396.37,1628.184 388.946,1642.914 372.292,1660L376.706,1660C392.456,1642.914 399.378,1628.066 397.774,1614.987C393.56,1582.7 340.29,1566.674 278.592,1548.174Z" fill="#848484"/>
<path d="M240.018,1600.886C220.2,1596.812 196.077,1597.051 173.857,1601.605C132.72,1609.993 52.247,1636.835 0,1654.93L0,1658.645C52.247,1640.55 133.221,1613.588 174.458,1605.08C196.378,1600.646 220.1,1600.287 239.616,1604.361C267.842,1610.233 277.752,1622.575 281.154,1632.042C284.258,1640.55 283.456,1650.616 278.852,1662L282.256,1662C286.66,1650.257 287.16,1639.711 283.856,1630.604C277.15,1612.15 256.332,1604.241 240.018,1600.886Z" fill="#848484"/>
<path d="M123.181,946.29C168.484,982.296 198.052,1033.936 224.01,1079.536C253.478,1131.176 279.036,1175.828 318.928,1183.052C322.636,1183.764 326.444,1184 330.254,1184C361.024,1184 397.606,1163.036 444.012,1118.858C478.792,1085.694 507.758,1055.61 533.316,1028.962C587.24,972.702 626.228,932.076 669.326,918.93C713.326,905.428 761.636,919.64 836.006,967.846C896.746,1007.286 969.21,1034.41 1034.66,1042.226C1065.13,1045.898 1092.792,1045.188 1114.742,1039.976C1137.896,1034.528 1154.132,1024.698 1162.852,1010.604C1174.78,991.298 1177.686,955.41 1123.462,893.94C1058.614,820.388 984.846,811.504 906.768,802.148C855.05,795.988 801.528,789.474 747.504,763.772C686.366,734.756 633.344,684.3 585.334,609.8C549.854,554.725 508.46,528.669 465.462,534.472C436.194,538.381 407.43,556.62 379.966,588.481C352.404,620.697 327.546,665.112 306.298,720.542C290.462,761.642 273.022,782.724 252.676,784.856C208.676,789.474 157.76,702.066 108.648,617.499C84.092,575.216 58.734,531.63 34.579,500.361C22.05,483.898 10.624,471.936 0,464L0,468.382C33.777,494.676 70.461,557.686 106.242,619.276C130.899,661.677 156.457,705.618 181.013,737.598C207.272,771.708 229.724,788.408 249.468,788.408C250.672,788.408 251.874,788.29 253.078,788.172C274.526,785.922 292.868,764.246 309.104,721.846C330.254,666.77 354.81,622.71 382.172,590.85C409.134,559.463 437.298,541.579 465.862,537.788C507.658,532.222 548.25,557.805 583.03,611.814C631.34,686.906 684.862,737.598 746.402,766.852C800.826,792.79 854.548,799.186 906.468,805.464C984.044,814.82 1057.312,823.586 1121.458,896.308C1174.178,956.12 1171.772,990.232 1160.546,1008.352C1144.11,1034.764 1097.202,1046.016 1035.06,1038.556C970.012,1030.738 897.948,1003.734 837.51,964.53C762.438,915.85 713.528,901.638 668.624,915.376C624.824,928.76 585.636,969.622 531.412,1026.238C505.854,1052.886 476.988,1082.97 442.208,1116.016C390.69,1165.05 351.702,1185.184 319.428,1179.38C280.84,1172.512 255.684,1128.452 226.516,1077.404C200.356,1031.568 170.689,979.69 124.885,943.21C86.898,913.008 50.716,897.848 16.939,897.848C11.226,897.848 5.613,898.322 0,899.15L0,902.704C37.987,896.9 79.281,911.35 123.181,946.29Z" fill="#848484"/>
<path d="M56.25,1295.844C102.674,1296.672 154.613,1307.696 200.436,1317.296C266.112,1331.164 317.85,1342.068 324.266,1316.94C333.892,1279.25 302.608,1248.076 250.67,1196.518C213.47,1159.537 167.047,1113.548 117.414,1047.41C80.114,997.866 42.915,975.346 7.019,980.798C4.813,981.154 2.507,981.628 0,982.22L0,985.895C2.406,985.302 4.913,984.709 7.42,984.354C42.313,979.139 78.51,1001.185 115.208,1049.899C165.041,1116.274 211.466,1162.381 248.764,1199.48C299.702,1250.092 330.484,1280.672 321.46,1316.112C315.844,1338.158 262.602,1326.898 201.038,1313.978C134.56,1299.872 56.451,1283.398 0,1297.74L0,1301.414C16.043,1297.266 34.693,1295.488 56.25,1295.844Z" fill="#848484"/>
<path d="M188.091,1276C214.09,1276 228.69,1270.423 231.49,1259.151C237.69,1234.59 185.991,1190.331 154.493,1166.126C109.995,1131.835 56.997,1099.561 28.499,1089.238C18.999,1085.797 9.4,1083.424 0,1082L0,1085.56C9.1,1086.983 18.399,1089.357 27.599,1092.679C55.897,1102.883 108.595,1134.92 152.793,1169.092C204.29,1208.842 232.59,1242.065 228.49,1258.083C224.49,1273.746 188.891,1276.593 128.194,1266.152C79.096,1257.846 27.799,1243.251 0.1,1233.996L0.1,1237.675C28.099,1247.048 79.096,1261.406 127.894,1269.83C152.193,1273.983 172.292,1276 188.091,1276Z" fill="#848484"/>
<path d="M59.625,1212C71.691,1212 78.427,1209.258 79.734,1203.773C82.55,1192.805 62.44,1174.563 45.045,1161.21C30.064,1149.645 12.971,1138.677 0,1132L0,1135.934C12.669,1142.611 29.058,1153.222 43.437,1164.31C65.758,1181.478 78.528,1196.262 76.819,1202.82C74.104,1213.431 33.784,1207.469 0,1198.528L0,1202.104C10.155,1204.727 21.517,1207.35 32.577,1209.258C43.638,1211.046 52.587,1212 59.625,1212Z" fill="#848484"/>
<path d="M340.829,1118C337.923,1118 335.118,1117.644 332.412,1116.816C307.864,1109.706 288.325,1089.088 275.9,1057.45C263.375,1025.22 259.167,983.628 263.876,937.06C268.185,895.114 280.71,853.524 300.349,816.79C370.187,685.855 428.202,614.048 472.79,603.384C487.118,599.948 500.244,602.91 511.568,612.271C554.03,647.153 581.728,681.11 606.158,711.058L607.056,712.161L607.274,712.428C645.046,758.751 674.916,795.384 740.32,816.554C781.702,829.944 801.242,842.266 799.938,854.352C798.936,863.714 784.91,871.178 758.156,876.63C732.204,881.844 694.73,885.042 649.842,885.754C615.974,886.346 580.804,901.868 542.228,933.506C508.562,961.234 476.698,997.374 448.542,1029.368C406.96,1076.646 370.588,1118 340.829,1118ZM302.954,818.686C283.616,854.946 271.191,896.062 266.983,937.534C262.373,983.392 266.482,1024.39 278.806,1056.028C290.73,1086.718 309.567,1106.624 333.214,1113.498C335.719,1114.208 338.324,1114.564 340.929,1114.564C369.385,1114.564 405.354,1073.686 446.434,1027.002L446.438,1026.998C474.594,994.886 506.558,958.626 540.524,930.78C579.602,898.788 615.374,882.91 649.842,882.318C694.63,881.606 731.904,878.406 757.656,873.194C790.82,866.438 796.532,858.262 797.034,853.998C798.436,840.488 757.354,825.678 739.62,819.99C673.288,798.424 643.128,761.454 605.052,714.649L604.64,714.144C580.194,684.17 552.51,650.229 509.964,615.233C502.148,608.835 493.532,605.635 484.112,605.635C480.706,605.635 477.1,606.109 473.492,606.939C429.805,617.366 372.392,688.581 302.954,818.686Z" clip-rule="evenodd" fill-rule="evenodd" fill="#848484"/>
<path d="M1049.034,987.342C1001.933,979.256 948.204,965.82 916.469,956.665C863.443,941.446 840.746,928.01 838.235,910.175C835.925,894.123 850.588,874.742 884.231,849.178C902.61,835.267 926.512,832.295 955.536,840.618C978.534,847.157 1004.745,860.712 1033.468,880.925C1081.272,914.574 1120.338,955.714 1122.246,957.735C1136.306,969.506 1141.93,978.305 1139.42,984.845C1137.01,990.909 1127.368,994 1110.094,994C1095.332,994 1075.046,991.741 1049.034,987.342ZM925.307,839.547C910.041,839.547 896.885,843.828 885.838,852.151C853.802,876.526 839.239,895.312 841.148,909.342C843.96,929.437 881.118,942.754 917.071,953.098C1004.243,978.186 1129.076,1002.68 1136.508,983.299C1137.512,980.683 1136.808,974.262 1120.338,960.47L1120.238,960.351C1120.214,960.33 1120.062,960.172 1119.788,959.886C1115.268,955.194 1077.58,916.06 1031.861,883.898C1003.44,863.922 977.529,850.486 954.833,844.066C944.288,841.093 934.446,839.547 925.307,839.547Z" clip-rule="evenodd" fill-rule="evenodd" fill="#848484"/>
<path d="M1010.531,943.516C992.75,940.441 972.371,935.355 960.383,931.925C943.101,926.958 931.413,921.872 930.115,913.356C929.116,906.733 934.61,899.282 947.896,889.228C960.683,879.412 980.063,883.433 1005.237,901.174C1023.118,913.711 1037.803,929.087 1038.902,930.27C1042.898,933.581 1047.193,937.957 1045.695,941.86C1044.895,943.989 1042.598,946 1033.807,946C1028.612,946 1021.22,945.29 1010.531,943.516ZM963.979,887.691C958.685,887.691 953.79,889.11 949.594,892.303C938.006,901.056 932.412,908.034 933.012,912.765C934.011,919.743 947.696,924.592 960.983,928.377C1005.636,941.269 1040.999,945.29 1042.898,940.441C1042.898,940.441 1043.497,938.667 1037.104,933.226L1037.004,933.108C1036.986,933.091 1036.914,933.017 1036.791,932.889C1033.48,929.467 993.065,887.691 963.979,887.691Z" clip-rule="evenodd" fill-rule="evenodd" fill="#848484"/>
<path d="M1245.772,292.461C1221.39,303.003 1206.942,330.484 1186.774,368.626C1177.042,387.105 1165.904,408.071 1151.958,430.34C1106.606,502.24 1060.954,475.826 985.302,432.117C946.272,409.492 897.608,381.419 837.508,361.045C750.116,331.432 691.822,332.972 659.313,365.783C629.514,395.87 620.082,451.424 629.514,540.62C637.741,617.968 686.905,677.55 775.601,717.824C859.18,755.728 958.11,766.508 1009.582,769.706C1099.082,775.036 1177.644,791.384 1243.264,818.034C1295.638,839.356 1339.886,867.312 1374.702,901.188C1386.14,912.324 1395.872,923.34 1404,934L1404,928.788C1396.274,919.074 1387.344,908.888 1376.91,898.702C1341.792,864.468 1297.244,836.276 1244.468,814.836C1178.548,788.066 1099.584,771.72 1009.784,766.272C958.412,763.192 859.882,752.412 776.705,714.626C689.113,674.944 640.551,616.31 632.524,540.382C623.193,452.49 632.323,398.002 661.32,368.744C693.026,336.762 750.417,335.341 836.706,364.717C896.606,385.091 945.068,413.046 983.998,435.552C1022.426,457.821 1052.828,475.352 1079.918,478.431C1109.316,481.748 1132.292,467.652 1154.366,432.709C1168.414,410.44 1179.55,389.355 1189.384,370.758C1209.15,333.209 1223.498,306.083 1246.876,296.015C1271.558,285.354 1304.97,294.356 1358.748,326.102C1375.104,335.815 1390.154,346.475 1404,357.728L1404,353.227C1390.556,342.33 1375.906,332.143 1360.054,322.785C1305.37,290.566 1271.256,281.445 1245.772,292.461Z" fill="#848484"/>
<path d="M1305.268,404.041C1280.612,404.871 1259.762,418.742 1243.324,445.299C1228.39,469.366 1217.864,491.3 1208.442,510.506C1178.172,572.749 1164.34,601.203 1071.622,558.166C1044.558,545.599 1012.684,527.341 978.906,508.016C885.887,454.665 780.441,394.2 724.61,423.603C707.771,432.376 696.244,449.211 690.33,473.397C682.311,506.119 685.418,535.759 699.752,561.486C720.601,598.832 764.503,628.472 833.866,652.184C887.792,670.678 957.254,685.498 1052.276,699.014C1145.596,712.292 1242.222,747.622 1324.214,798.366C1354.784,817.334 1381.948,837.726 1404,858L1404,853.258C1382.25,833.576 1355.788,813.896 1325.516,795.164C1243.224,744.184 1146.196,708.736 1052.478,695.456C957.556,681.942 888.294,667.122 834.567,648.626C765.907,625.152 722.605,595.868 702.157,559.352C688.325,534.573 685.318,506.001 693.036,474.227C698.85,450.753 709.475,435.222 725.612,426.804C780.24,398.113 884.985,458.222 977.402,511.217C1011.18,530.661 1043.156,548.919 1070.32,561.486C1116.126,582.708 1144.292,587.45 1164.54,577.136C1184.086,567.177 1195.312,544.177 1210.748,512.284C1220.07,493.078 1230.594,471.382 1245.428,447.433C1261.266,421.825 1281.312,408.427 1305.068,407.598C1338.546,406.531 1374.932,430.716 1403.9,456.444L1403.9,451.938C1358.394,411.629 1325.516,403.329 1305.268,404.041Z" fill="#848484"/>
<path d="M1300.654,494.785C1283.029,498.351 1270.011,514.75 1261.899,543.509C1237.665,629.19 1180.985,623.367 1143.432,619.565C1123.003,617.425 1108.183,615.999 1106.38,629.903C1104.077,647.491 1112.188,661.039 1132.216,672.328C1150.042,682.429 1175.678,690.273 1205.32,699.186C1267.407,717.962 1346.92,742.086 1403.9,804L1403.9,799.128C1346.62,738.282 1267.708,714.396 1206.021,695.74C1147.138,677.914 1104.678,665.079 1109.284,630.379C1110.586,620.278 1122.403,620.991 1143.132,623.13C1162.359,625.031 1186.193,627.527 1208.724,618.495C1235.362,607.8 1253.688,583.676 1264.703,544.697C1272.414,517.364 1284.732,501.678 1301.155,498.351C1332.098,491.933 1372.856,528.892 1404,564.305L1404,559.314C1402.398,557.413 1400.696,555.63 1398.992,553.729C1358.536,509.521 1325.49,489.675 1300.654,494.785Z" fill="#848484"/>
<path d="M1342.85,586.17C1327.538,579.504 1314.612,580.813 1304.669,590.218C1296.515,597.837 1293.035,608.67 1294.228,622.36C1298.504,669.74 1358.858,739.501 1404,772L1404,767.714C1384.014,753.072 1361.742,731.644 1342.651,708.43C1315.407,675.216 1299.2,644.503 1297.112,621.765C1296.018,609.503 1299.101,599.742 1306.458,592.837C1333.205,567.718 1377.253,611.765 1404,644.383L1404,639.265C1397.835,631.765 1390.776,623.908 1383.318,616.408C1368.503,601.646 1354.881,591.408 1342.85,586.17Z" fill="#848484"/>
<path d="M1057.652,623.911C1057.998,624.204 1058.192,624.367 1058.224,624.393C1070.148,634.992 1074.358,643.685 1070.75,650.235C1066.742,657.26 1053.814,660 1036.778,660C1013.43,660 982.164,654.88 954.706,648.329C887.865,632.491 824.13,605.577 784.246,576.4C739.352,543.532 724.12,507.925 740.254,473.389C744.563,464.1 751.778,458.146 761.598,455.526C793.265,447.19 852.891,473.032 938.672,532.576C998.954,574.252 1051.616,618.805 1057.652,623.911ZM1031.066,656.19C1058.824,657.022 1066.24,651.426 1068.144,648.091C1071.452,642.375 1063.634,633.562 1056.42,627.251C1053.814,624.988 857.4,457.55 774.325,457.55C769.916,457.55 765.908,458.027 762.2,458.979C753.281,461.361 746.767,466.72 742.859,475.056C734.842,492.205 734.942,509.592 743.26,526.86C750.776,542.579 765.106,558.18 785.749,573.304C825.333,602.242 888.666,629.037 955.206,644.757C983.766,651.545 1010.724,655.594 1031.066,656.19Z" clip-rule="evenodd" fill-rule="evenodd" fill="#848484"/>
<path d="M954.285,592.72C955.012,593.246 955.415,593.538 955.46,593.564C956.966,594.855 961.683,598.961 959.375,602.832C958.07,605.179 954.055,606 948.634,606C933.779,606 908.584,599.196 902.16,597.436C868.735,588.05 837.718,574.559 819.249,561.302C800.679,547.928 794.255,534.905 800.077,522.587C801.482,519.654 803.891,517.659 807.104,516.721C820.152,512.849 849.161,524.581 893.227,551.682C922.21,569.505 948.499,588.532 954.285,592.72ZM902.863,593.916C936.991,603.419 955.259,603.654 956.966,600.721C957.167,600.603 956.865,599.196 953.653,596.38C950.843,594.268 848.258,519.419 812.825,519.419C810.918,519.419 809.312,519.654 807.806,520.123C805.297,520.827 803.691,522.235 802.687,524.229C797.769,534.553 803.791,545.933 820.755,558.134C838.923,571.274 869.638,584.648 902.863,593.916Z" clip-rule="evenodd" fill-rule="evenodd" fill="#848484"/>
<path d="M362.512,1029.014C352.511,1033.988 344.31,1036 337.609,1036C324.007,1036 316.606,1027.712 312.405,1018.95C285.702,962.946 346.01,782.618 428.021,712.287C452.524,691.33 474.527,682.805 493.329,687.067C508.832,690.619 522.134,702.578 532.934,722.706C543.536,742.361 548.636,765.095 547.936,788.538C547.236,811.864 540.736,834.242 529.234,853.186L526.134,858.278L525.952,858.575C487.804,921.354 448.388,986.22 362.512,1029.014ZM429.821,715.366C392.716,747.216 356.211,806.062 332.208,872.723C309.705,935.12 303.004,991.954 315.006,1017.292C323.107,1034.224 338.609,1037.066 361.312,1025.698C446.523,983.192 485.728,918.662 523.634,856.146L526.734,851.055C537.936,832.703 544.236,811.035 544.936,788.42C545.636,765.687 540.636,743.664 530.434,724.719C520.132,705.538 507.432,694.053 492.829,690.738C489.829,690.027 486.728,689.672 483.628,689.672C467.726,689.672 449.724,698.316 429.821,715.366Z" clip-rule="evenodd" fill-rule="evenodd" fill="#848484"/>
<path d="M391.263,947.61C385.046,950.695 379.931,952 375.82,952C367.898,952 363.586,947.373 361.279,942.508C354.36,928.034 358.571,897.423 372.21,862.66C386.45,826.591 407.81,793.845 429.47,775.336C443.81,763.116 456.646,758.132 467.778,760.624C476.903,762.641 484.825,769.641 491.143,781.506C503.678,804.998 502.876,834.896 488.937,857.795C466.775,894.219 442.607,921.983 391.263,947.61ZM431.275,778.302C410.116,796.455 389.057,828.608 375.018,864.202C361.881,897.304 357.569,927.44 363.987,940.847C368.198,949.746 377.023,950.932 390.16,944.407C440.902,919.135 464.669,891.728 486.53,855.778C499.767,834.066 500.57,805.709 488.636,783.523C482.72,772.607 475.6,766.082 467.276,764.183C465.572,763.827 463.867,763.59 462.062,763.59C452.936,763.59 442.707,768.573 431.275,778.302Z" clip-rule="evenodd" fill-rule="evenodd" fill="#848484"/>
<path d="M1359.662,956.867C1334.084,938.957 1308.604,935.162 1288.042,946.192C1257.446,962.441 1243.404,1007.986 1255.44,1052.108C1258.55,1063.495 1256.644,1072.627 1249.822,1079.744C1228.256,1102.042 1158.54,1103.94 1058.43,1084.844C971.964,1068.357 878.774,1038.587 831.73,1012.256C792.708,990.433 761.212,986.874 738.04,1001.463C717.476,1014.391 703.934,1042.145 698.818,1081.523C691.194,1140.47 586.37,1196.69 502.109,1241.76C442.324,1273.784 395.078,1299.048 388.759,1319.804C387.655,1323.362 387.755,1326.684 389.06,1329.768C394.677,1343.526 408.419,1345.898 433.798,1337.476C457.17,1329.648 490.273,1312.926 532.102,1291.694C597.002,1258.722 685.978,1213.532 800.132,1170.478C893.722,1135.252 975.072,1139.284 1041.88,1182.458C1078.092,1205.942 1109.388,1240.574 1134.868,1285.408C1156.634,1323.838 1173.988,1369.738 1184.922,1418.248C1192.946,1453.83 1210.502,1483.482 1237.184,1506.374C1258.75,1524.876 1286.436,1539.108 1319.338,1548.716C1345.018,1556.188 1374.208,1560.696 1404,1562L1404,1558.442C1374.408,1557.138 1345.52,1552.63 1320.04,1545.158C1287.54,1535.788 1260.256,1521.674 1238.99,1503.408C1212.908,1480.992 1195.756,1452.052 1187.832,1417.18C1176.796,1368.196 1159.342,1321.94 1137.376,1283.274C1111.596,1237.846 1079.998,1202.858 1043.284,1179.136C975.774,1135.37 893.62,1131.338 799.228,1166.802C684.874,1209.856 595.9,1255.044 530.898,1288.136C447.942,1330.242 402.2,1353.488 391.768,1327.988C390.865,1325.734 390.765,1323.362 391.567,1320.754C397.486,1301.42 446.537,1275.09 503.413,1244.726C545.744,1222.072 593.794,1196.334 631.61,1169.054C675.346,1137.505 698.316,1108.921 701.828,1081.76C706.742,1043.569 719.782,1016.763 739.444,1004.31C761.812,990.195 792.408,993.872 830.526,1015.221C900.542,1054.362 1071.472,1101.093 1175.292,1101.093C1211.104,1101.093 1238.99,1095.518 1251.93,1082.116C1259.754,1074.051 1261.96,1063.495 1258.45,1050.685C1246.914,1008.342 1260.256,964.576 1289.446,949.039C1326.962,929.113 1368.49,959.239 1403.9,1006.445L1403.9,1000.396C1389.254,982.011 1374.508,967.304 1359.662,956.867Z" fill="#848484"/>
<path d="M1347.766,1014.122C1337.342,1010.331 1327.518,1011.634 1318.598,1017.914C1292.436,1036.515 1298.15,1070.638 1303.162,1100.851C1306.67,1121.822 1309.978,1141.608 1301.858,1152.627C1296.244,1160.21 1285.32,1163.409 1268.579,1162.224C1230.389,1159.617 1193.702,1150.02 1164.232,1142.319C1125.04,1132.13 1096.672,1124.665 1086.348,1138.291C1083.241,1142.438 1081.737,1147.058 1082.038,1152.153C1082.84,1168.266 1100.882,1187.105 1123.837,1210.92C1156.815,1245.28 1197.912,1288.17 1212.046,1345.752C1225.878,1401.912 1244.522,1457.48 1287.624,1483.19C1304.164,1493.024 1323.51,1498 1345.862,1498C1363.304,1498 1382.65,1495.038 1403.9,1488.996L1403.9,1485.322C1355.786,1499.066 1317.896,1497.29 1288.928,1479.99C1246.928,1454.872 1228.484,1400.134 1214.852,1344.686C1200.418,1286.156 1159.02,1242.91 1125.741,1208.195C1103.388,1184.854 1085.746,1166.489 1084.945,1151.798C1084.744,1147.651 1085.947,1143.978 1088.553,1140.542C1097.675,1128.457 1126.744,1136.04 1163.631,1145.637C1193.201,1153.338 1230.088,1162.935 1268.479,1165.541C1286.222,1166.726 1297.848,1163.172 1304.164,1154.641C1313.184,1142.319 1309.776,1121.703 1306.168,1099.903C1301.056,1069.453 1295.844,1038.056 1320.202,1020.757C1328.32,1014.952 1337.342,1013.885 1346.964,1017.203C1363.906,1023.245 1383.452,1043.98 1404,1077.273L1404,1071.112C1387.36,1045.164 1367.514,1021.113 1347.766,1014.122Z" fill="#848484"/>
<path d="M1367.472,1131.778C1352.9,1137.353 1342.72,1155.974 1342.221,1178.273C1341.922,1192.268 1339.527,1200.927 1334.636,1206.264C1324.057,1217.769 1299.805,1215.99 1255.691,1212.787L1250.502,1212.432C1233.435,1211.246 1224.153,1213.855 1221.059,1220.616C1216.369,1231.172 1227.846,1249.082 1243.815,1273.989C1258.087,1296.169 1275.852,1323.686 1285.832,1353.1C1293.517,1375.636 1306.591,1391.174 1324.556,1399.358C1335.135,1404.102 1346.713,1406 1358.29,1406C1374.658,1406 1390.926,1402.324 1404,1398.172L1404,1394.376C1380.047,1402.086 1350.006,1406.948 1325.654,1396.036C1308.488,1388.328 1296.012,1373.382 1288.627,1351.796C1278.447,1321.907 1260.582,1294.153 1246.21,1271.854C1232.038,1249.912 1219.862,1230.935 1223.654,1222.395C1226.05,1217.057 1234.733,1215.041 1250.202,1216.109L1255.392,1216.464C1301.701,1219.785 1325.055,1221.446 1336.533,1208.992C1342.122,1202.943 1344.816,1193.454 1345.116,1178.391C1345.615,1157.635 1354.896,1140.318 1368.27,1135.218C1378.949,1131.185 1391.225,1134.862 1404,1145.418L1404,1140.911C1387.632,1127.983 1374.957,1128.932 1367.472,1131.778Z" fill="#848484"/>
<path d="M1342.01,1254.595C1332.581,1267.222 1329.672,1283.185 1333.885,1299.624C1338.499,1317.492 1355.551,1327.618 1384.54,1329.643C1388.352,1329.881 1392.164,1330 1395.775,1330C1398.583,1330 1401.392,1329.881 1404,1329.762L1404,1326.188C1379.826,1327.26 1343.314,1324.401 1336.694,1298.432C1332.782,1283.185 1335.49,1268.413 1344.116,1256.858C1356.153,1240.777 1377.719,1232.557 1403.9,1233.629L1403.9,1230.056C1377.017,1229.222 1354.649,1237.799 1342.01,1254.595Z" fill="#848484"/>
<path d="M110.715,889.932C148.76,908.322 185.095,926 209.654,926C216.296,926 222.034,924.694 226.764,921.848C233.406,917.814 237.634,910.576 239.446,900.492C243.774,876.762 222.336,853.864 189.825,819.22C157.618,784.932 113.533,738.068 74.581,667.831C48.111,620.254 23.25,589.644 0.101,576L0.101,579.915C22.344,593.559 46.4,623.458 71.965,669.729C111.218,740.441 155.403,787.424 187.712,821.83C219.416,855.644 240.452,877.95 236.426,899.662C234.716,908.796 231.092,914.966 225.254,918.526C204.42,931.458 159.429,909.628 111.822,886.492C80.419,871.306 47.909,855.526 19.727,848.406C12.682,846.628 6.039,845.44 0,844.848L0,848.406C5.838,849 12.279,850.068 19.123,851.848C47.104,859.084 79.513,874.746 110.715,889.932Z" fill="#848484"/>
<path d="M95.162,826C105.515,826 112.084,822.934 114.772,816.919C121.342,801.822 101.533,773.045 55.744,731.058C35.039,712.188 13.538,694.733 0,684L0,688.128C45.292,723.864 122.536,791.444 112.184,815.267C109.994,820.339 104.021,822.58 95.66,822.58C73.661,822.58 34.641,807.719 0,791.915L0,795.689C7.466,799.11 15.329,802.53 23.293,805.832C55.544,819.277 79.634,826 95.162,826Z" fill="#848484"/>
<path d="M525.585,1105.746C531.026,1094.95 536.77,1085.221 542.816,1076.678C561.961,1049.39 590.982,1035.153 620.103,1038.475C637.233,1040.492 645.899,1047.611 646,1059.831C646.201,1100.289 541.707,1184.763 494.65,1190.695C487.798,1191.644 482.558,1192 478.628,1192C470.164,1192 467.342,1190.22 466.335,1187.61C464.319,1182.153 471.574,1174.322 483.666,1161.271C496.564,1147.39 514.198,1128.407 525.585,1105.746ZM586.145,1135.526C621.312,1106.102 643.178,1077.034 643.077,1059.95C643.077,1049.865 635.218,1043.814 620.002,1042.153C617.281,1041.797 614.561,1041.679 611.84,1041.679C586.447,1041.679 562.062,1055.204 545.234,1078.933C539.289,1087.238 533.646,1096.967 528.305,1107.526C516.821,1130.454 499.102,1149.537 486.133,1163.504L485.782,1163.881L485.325,1164.376C476.801,1173.594 468.069,1183.037 469.257,1186.068C469.962,1187.966 474.9,1189.627 494.448,1187.136C516.012,1184.407 551.985,1164.119 586.145,1135.526Z" clip-rule="evenodd" fill-rule="evenodd" fill="#848484"/>
<path d="M97.872,469.378C120.412,518.474 144.554,568.994 168.096,605.876C194.041,646.314 216.582,666 237.118,666C237.318,666 237.518,666 237.718,666C258.154,665.644 276.186,646.196 292.816,606.824C327.776,524.166 369.15,473.648 412.526,460.958C442.178,452.302 472.632,460.84 502.984,486.574C526.326,506.378 542.956,512.9 553.574,506.616C569.302,497.366 570.204,462.856 571.204,423.01C572.306,379.25 573.508,329.56 595.648,306.792C605.966,296.238 619.79,292.324 637.922,294.696C685.406,301.1 730.586,292.56 768.552,270.266C804.616,249.038 832.564,216.664 849.294,176.58C865.222,138.513 869.83,95.583 862.818,52.654C859.912,34.747 855.004,17.196 848.292,0L844.886,0C868.328,58.583 869.63,120.25 846.69,175.038C830.26,214.41 802.812,246.192 767.35,267.064C729.884,289.122 685.206,297.424 638.324,291.138C619.59,288.648 604.564,292.916 593.744,304.064C570.604,327.782 569.402,378.302 568.2,422.772C567.298,459.892 566.396,494.994 552.272,503.294C542.654,508.988 527.128,502.464 504.688,483.49C473.534,457.164 442.278,448.388 411.724,457.282C367.446,470.326 325.372,521.44 290.11,605.044C273.982,643.112 256.852,661.85 237.718,662.206C237.518,662.206 237.318,662.206 237.118,662.206C193.54,662.206 145.756,566.028 100.477,467.362C72.728,407.238 39.069,365.73 0,343.674L0,347.586C37.867,369.526 70.724,410.32 97.872,469.378Z" fill="#848484"/>
<path d="M135.601,318C152.952,318 168.197,315.044 180.734,309.012C209.318,295.294 223.56,267.264 223.06,225.4C222.558,184.362 231.886,153.85 251.544,132.208C299.986,78.516 404.294,87.741 514.822,97.675C531.07,99.094 547.92,100.632 564.468,101.933C580.616,103.234 595.46,103.825 609.1,103.825C671.384,103.825 706.688,90.698 714.412,64.561C719.828,46.112 710.8,23.76 696.358,2L692.446,2C707.29,23.642 716.718,45.757 711.604,63.497C702.776,93.536 653.432,105.362 564.77,98.503C548.22,97.202 531.37,95.665 515.122,94.246C403.994,84.311 298.984,74.969 249.538,129.725C229.278,152.195 219.65,183.534 220.15,225.636C220.652,265.846 207.012,292.928 179.731,305.938C144.627,322.73 87.559,315.044 22.968,284.886C15.245,281.338 7.623,277.436 0,273.414L0,277.318C7.221,281.22 14.543,284.886 21.865,288.198C64.19,307.83 103.506,318 135.601,318Z" fill="#848484"/>
<path d="M78.285,205.764C114.37,203.156 144.942,180.767 169.3,139.185L173.309,132.314C202.88,81.847 217.714,56.495 239.666,45.951C261.618,35.408 291.388,39.199 350.728,46.899C357.946,47.847 365.664,48.794 373.782,49.861C444.148,58.746 495.07,61.826 529.45,58.983C562.628,56.258 581.474,48.321 588.69,33.986C593.1,25.22 592.9,14.557 589.292,2L586.184,2C589.792,14.084 590.194,24.153 586.084,32.209C579.468,45.122 560.924,52.822 529.25,55.429C494.968,58.272 444.25,55.31 374.084,46.307C365.964,45.24 358.246,44.293 351.03,43.345C291.188,35.526 261.216,31.617 238.464,42.634C215.71,53.652 200.674,79.24 170.803,130.3L166.794,137.171C142.938,177.805 113.167,199.721 78.084,202.21C60.042,203.512 33.88,199.84 0,181.122L0,185.031C29.77,201.261 53.627,206 71.369,206C73.874,206 76.18,205.882 78.285,205.764Z" fill="#848484"/>
<path d="M118.953,121.522C133.248,113.632 143.044,100.208 147.942,81.603C155.239,54.519 156.839,27.2 155.639,2L152.64,2C153.84,26.846 152.24,53.812 145.043,80.543C140.345,98.206 131.049,110.924 117.554,118.342C85.467,136.006 35.586,121.522 0,107.038L0,110.806C23.891,120.462 54.079,130 81.268,130C94.963,130 107.958,127.527 118.953,121.522Z" fill="#848484"/>
<path d="M738.908,89.438C719.028,135.763 630.974,129.484 629.97,129.366C580.672,129.366 534.888,125.219 494.526,121.427C434.484,115.859 382.574,111.12 344.22,122.849C323.938,129.01 308.175,139.555 296.126,154.957C283.074,171.544 274.238,193.937 269.017,223.202C251.647,321.066 206.164,332.794 169.517,342.154C147.428,347.842 128.351,352.7 122.026,375.922C116.303,397.13 122.929,439.308 139.094,483.382C156.364,530.656 179.858,567.266 201.947,581.246C209.076,585.748 216.205,588 222.932,588C235.783,588 247.932,579.944 258.575,564.186C274.74,540.252 287.893,514.188 300.645,488.952C324.44,441.796 344.922,401.158 376.75,392.034C396.33,386.466 419.122,393.338 446.23,413.362C482.176,439.782 507.076,448.076 522.438,438.716C541.514,427.104 543.422,391.206 545.43,353.054C548.14,301.872 550.952,248.912 595.532,251.282C605.772,251.754 615.612,252.11 625.15,252.11C721.538,252.11 784.09,225.216 811.1,171.9C832.386,130.076 826.964,79.604 818.73,44.771C814.814,28.066 809.894,13.374 805.578,2L802.264,2C806.682,13.374 811.802,28.658 815.818,45.837C830.378,107.802 819.834,147.611 808.488,170.123C779.372,227.466 707.684,253.65 595.632,247.846C574.246,246.778 559.988,257.442 552.056,280.546C545.128,300.568 543.724,327.226 542.418,353.054C540.51,390.14 538.602,425.09 521.032,435.754C506.674,444.522 482.778,436.228 447.736,410.518C419.824,390.02 396.33,382.912 375.948,388.836C342.914,398.314 322.03,439.546 297.934,487.41C285.283,512.528 272.13,538.476 256.065,562.172C240.402,585.274 222.631,590.606 203.152,578.284C181.666,564.66 158.573,528.76 141.604,482.198C126.042,439.546 119.214,397.366 124.636,377.224C130.459,355.898 147.829,351.396 169.918,345.828C188.393,341.088 209.277,335.756 227.952,318.932C249.539,299.502 263.897,268.46 271.728,224.03C281.467,168.938 303.958,138.844 344.722,126.404C361.79,121.19 381.772,119.295 403.96,119.295C430.868,119.295 461.292,122.138 494.024,125.1C534.486,128.773 580.27,133.038 629.568,133.038C629.568,133.038 629.568,133.038 629.67,133.038C629.87,133.038 652.562,134.816 677.362,130.55C711.096,124.863 732.584,111.594 741.418,91.215C750.958,69.059 744.832,39.203 723.146,2.118L719.53,2.118C741.62,38.729 748.046,68.112 738.908,89.438Z" fill="#848484"/>
<path d="M745.04,130.788C728.574,155.118 678.772,165.206 601.16,159.984C542.222,156.067 487.6,144.555 487.098,144.436C486.798,144.318 453.464,137.315 415.912,145.979C393.722,150.964 374.444,160.34 358.48,173.87C338.499,190.722 323.74,213.984 314.703,242.942C297.233,299.08 277.654,337.414 254.761,360.2C234.881,380.02 215.503,385.242 197.43,388.922C171.023,394.262 162.087,414.202 159.276,429.986C153.653,460.844 167.208,502.5 188.293,519.236C194.016,523.746 199.839,526 205.462,526C210.683,526 215.804,524.102 220.623,520.184C240.403,504.282 260.685,473.662 282.172,441.38C323.037,379.784 365.308,316.17 407.778,348.096C414.004,352.724 420.028,357.352 425.752,361.862C456.876,385.954 481.576,405.062 497.14,396.042C506.376,390.702 511.598,376.578 513.506,351.418C517.422,299.436 524.65,260.27 547.242,238.196C563.306,222.41 586.198,216.596 617.324,220.156C704.476,230.244 761.908,211.966 788.114,166.037C809.098,129.245 805.484,81.416 798.756,47.71C794.942,28.602 789.72,11.75 785.604,0L782.39,0C786.508,11.631 791.928,28.84 795.844,48.541C802.372,81.535 805.886,128.296 785.604,164.019C760.1,208.762 703.572,226.446 617.626,216.596C585.696,212.916 562.102,219.088 545.334,235.466C522.04,258.372 514.51,298.248 510.494,351.18C508.686,374.68 503.966,388.328 495.834,392.958C481.778,401.028 457.78,382.514 427.458,359.014C421.634,354.504 415.61,349.876 409.386,345.246C389.204,330.056 367.416,333.854 342.816,356.878C321.33,376.816 300.245,408.624 279.862,439.362C258.577,471.524 238.395,501.788 219.017,517.454C207.671,526.594 197.028,521.964 190,516.386C169.818,500.364 156.866,460.368 162.188,430.816C164.898,416.1 173.232,397.468 197.932,392.482C216.406,388.684 236.186,383.344 256.669,362.93C279.963,339.668 299.843,300.86 317.514,244.13C326.35,215.764 340.708,193.096 360.086,176.718C375.648,163.544 394.626,154.406 416.314,149.421C430.37,146.217 443.824,145.148 455.17,145.148C473.644,145.148 486.296,147.878 486.496,147.878C486.998,147.997 541.82,159.509 600.958,163.426C680.68,168.766 729.978,158.56 747.35,132.924C764.518,107.764 768.534,73.702 758.896,34.537C755.582,21.125 751.264,9.257 747.45,0.119L744.036,0.119C747.952,9.139 752.57,21.481 755.984,35.486C762.51,61.952 765.824,100.049 745.04,130.788Z" fill="#848484"/>
<path d="M423.624,177.796C434.279,171.61 446.129,170.302 457.083,174.227C467.838,178.034 475.904,186.004 480.982,197.9C496.517,233.705 482.775,296.633 473.215,330.893C470.725,339.933 467.639,344.691 463.556,345.762C462.958,345.881 462.361,346 461.763,346C455.13,346 447.512,336.71 438.028,325.145L437.864,324.945C428.802,313.882 418.546,301.391 406.198,292.589C385.585,277.838 375.427,261.303 376.025,243.222C377.12,211.699 411.675,184.814 423.624,177.796ZM462.958,342.312C465.846,341.48 468.336,337.435 470.427,329.822C492.434,251.073 484.866,214.434 478.294,199.684C473.514,188.74 466.045,181.365 456.187,177.796C452.303,176.369 448.32,175.655 444.237,175.655C437.665,175.655 431.093,177.439 424.919,181.008C413.367,187.788 380.008,213.602 379.012,243.341C378.415,259.995 388.174,275.578 407.791,289.496C420.32,298.334 431.089,311.493 439.809,322.147L440.055,322.447L440.168,322.585C449.48,333.946 457.503,343.734 462.958,342.312Z" clip-rule="evenodd" fill-rule="evenodd" fill="#848484"/>
<path d="M429,233.924C432.452,231.899 436.298,231.423 439.849,232.733C443.301,234.043 445.964,236.663 447.739,240.713C452.67,252.148 448.429,271.801 445.47,282.521C444.977,284.546 443.991,287.285 441.821,287.881C441.525,288 441.328,288 441.032,288C438.59,288 436.245,285.079 433.133,281.204L433.043,281.092C430.381,277.757 427.323,273.945 423.674,271.325C417.066,266.56 413.811,261.081 414.008,255.006C414.378,243.622 427.131,235.167 428.817,234.049C428.93,233.973 428.994,233.931 429,233.924ZM441.131,284.308C441.427,284.308 442.018,283.355 442.61,281.33C444.879,273.111 449.613,252.862 445.175,242.262C443.794,239.165 441.821,237.14 439.06,236.187C437.975,235.83 436.791,235.591 435.706,235.591C433.832,235.591 432.057,236.068 430.282,237.14C427.619,238.807 417.263,246.55 416.967,255.245C416.77,259.771 419.532,264.178 425.153,268.228C429.098,271.086 432.452,275.255 435.115,278.59C435.248,278.752 435.385,278.917 435.523,279.084C437.619,281.623 440.113,284.643 441.131,284.308Z" clip-rule="evenodd" fill-rule="evenodd" fill="#848484"/>
<path d="M1225.88,213.068C1187.504,228.838 1160.882,274.846 1146.918,349.786C1140.488,384.412 1124.414,406.23 1099.198,414.648C1051.98,430.538 976.433,394.016 923.69,329.628C881.395,278.166 864.417,221.604 877.076,174.53C888.83,130.893 892.145,83.462 887.021,33.779C885.916,23.344 884.409,12.672 882.601,2L879.487,2C881.395,12.909 882.902,23.581 884.007,34.253C889.131,83.462 885.816,130.419 874.263,173.581C861.203,221.96 878.482,279.708 921.58,332.238C946.696,362.83 978.241,388.562 1010.489,404.688C1033.395,416.19 1055.497,422 1074.986,422C1084.028,422 1092.466,420.696 1100.102,418.206C1126.02,409.55 1143.3,386.19 1149.93,350.616C1163.694,276.98 1189.514,231.92 1226.886,216.506C1280.13,194.569 1348.344,235.834 1404,283.62L1404,279.234C1347.942,231.446 1279.728,191.012 1225.88,213.068Z" fill="#848484"/>
<path d="M1244.338,118.937C1211.984,126.638 1187.344,152.11 1171.216,194.406C1148.88,252.934 1120.534,293.926 1086.878,316.438C1050.818,340.488 1018.765,336.46 998.232,328.878C973.391,319.636 951.955,300.206 937.832,274.142C923.208,247.246 917.799,215.496 922.707,184.81C932.824,121.069 936.63,59.58 934.226,2L931.221,2C933.625,59.343 929.819,120.595 919.802,184.099C914.794,215.732 920.303,248.314 935.328,275.918C949.852,302.694 971.888,322.598 997.43,332.076C1008.148,336.104 1019.166,338 1030.184,338C1049.917,338 1069.85,331.72 1088.38,319.4C1122.636,296.534 1151.384,254.948 1174.022,195.709C1189.748,154.48 1213.586,129.836 1244.938,122.254C1270.38,116.212 1300.93,121.661 1333.284,138.248C1358.626,151.162 1384.268,170.592 1404,191.8L1404,187.061C1363.232,144.646 1297.524,106.26 1244.338,118.937Z" fill="#848484"/>
<path d="M747.15,1621.863C744.567,1618.831 741.289,1617.619 737.514,1618.104C724.698,1619.801 707.213,1642.234 694,1662L697.874,1662C710.492,1643.326 726.586,1623.318 737.812,1621.741C740.693,1621.378 743.077,1622.226 745.064,1624.53C751.919,1632.412 759.569,1646.842 766.523,1662L770,1662C762.748,1645.994 754.601,1630.351 747.15,1621.863Z" fill="#848484"/>
<path d="M1374.174,114.222C1339.93,110.43 1298.556,94.788 1260.598,71.087C1216.612,43.595 1179.858,84.597 1137.38,131.998C1105.044,168.141 1068.39,209.024 1022.999,223.838C1007.032,229.052 994.68,226.326 986.144,216.016C957.122,180.584 976.604,64.57 989.86,2L986.747,2C982.73,21.079 978.11,44.898 974.495,69.784C963.348,147.166 966.562,197.175 984.035,218.506C990.362,226.208 998.496,230 1008.337,230C1013.158,230 1018.279,229.052 1023.903,227.274C1069.896,212.344 1106.952,171.104 1139.489,134.605C1181.164,88.152 1217.114,47.979 1259.192,74.287C1297.954,98.58 1338.726,113.985 1373.874,117.778C1384.82,118.963 1394.862,118.963 1404,117.778L1404,114.222C1395.062,115.407 1385.02,115.407 1374.174,114.222Z" fill="#848484"/>
<path d="M1031.074,157.646C1032.676,157.882 1034.177,158 1035.779,158C1062.404,158 1092.132,123.517 1108.047,102.024C1129.167,73.682 1149.686,36.837 1164,2L1160.697,2C1146.584,36.011 1126.465,71.911 1105.845,99.662C1077.418,137.924 1050.993,157.291 1031.475,154.103C1023.367,152.804 1018.062,148.435 1015.26,140.995C1004.75,112.653 1033.176,46.757 1055.498,2.118L1051.994,2.118C1047.59,11.093 1042.886,20.777 1038.381,30.815C1013.858,85.255 1005.15,122.808 1012.557,142.412C1015.76,151.033 1021.966,156.111 1031.074,157.646Z" fill="#848484"/>
<path d="M1070.939,79.882C1071.548,80 1072.258,80 1072.968,80C1079.057,80 1088.698,75.745 1102.093,57.9C1112.038,44.782 1121.577,26.936 1127.159,11.336C1128.072,8.736 1129.087,5.545 1130,2.118L1126.854,2.118C1126.144,4.6 1125.332,7.2 1124.419,9.918C1112.951,42.064 1086.77,78.818 1071.446,76.218C1068.605,75.745 1066.778,74.327 1065.763,71.727C1060.588,58.018 1081.594,17.482 1090.626,2L1086.973,2C1080.478,13.464 1056.833,56.6 1063.023,73.145C1064.343,77.045 1067.083,79.291 1070.939,79.882Z" fill="#848484"/>
<path d="M1353.397,75.463C1333.338,72.478 1310.859,62.448 1286.465,45.612C1265.196,30.925 1246.144,13.493 1232.637,0L1228,0C1241.81,13.97 1262.071,32.955 1284.953,48.716C1309.75,65.791 1332.632,76.06 1353.095,79.045C1357.329,79.642 1361.462,80 1365.594,80C1379.808,80 1392.609,76.179 1404,68.537L1404,64.358C1389.384,74.507 1372.55,78.328 1353.397,75.463Z" fill="#848484"/>
<path d="M758.8,1064.294C777.9,1050.915 810.998,1050.557 857.196,1063.338C890.295,1072.536 918.494,1085.437 920.794,1086.512C950.492,1093.082 954.192,1098.935 953.992,1103.236C953.792,1109.089 945.792,1117.092 885.395,1127.843C847.897,1134.533 803.199,1140.027 770.6,1143.969L762.5,1144.925C756.6,1145.642 751.301,1146 746.501,1146C728.201,1146 717.502,1140.744 714.702,1130.471C709.602,1111.956 733.101,1082.332 758.8,1064.294ZM884.895,1124.379C944.194,1113.748 950.792,1105.983 950.892,1103.116C950.892,1101.683 948.792,1096.427 920.094,1090.096L919.794,1089.976C919.778,1089.97 919.69,1089.93 919.53,1089.857C916.55,1088.498 888.871,1075.88 856.596,1066.922C839.097,1062.024 818.198,1057.724 799.199,1057.724C784.299,1057.724 770.5,1060.472 760.4,1067.519C747.701,1076.478 735.801,1088.065 727.702,1099.413C719.202,1111.478 715.602,1122.109 717.602,1129.515C720.702,1140.505 736.101,1144.686 762.2,1141.461L770.3,1140.505C772.709,1140.205 775.184,1139.898 777.717,1139.583C809.452,1135.642 850.261,1130.574 884.895,1124.379Z" clip-rule="evenodd" fill-rule="evenodd" fill="#848484"/>
<path d="M782.041,311.637C781.246,302.27 792.072,291.265 814.121,278.737C828.622,270.541 845.904,273.117 857.922,285.41C867.457,295.128 877.786,308.944 872.621,320.418C868.648,329.317 856.035,334 839.25,334C828.026,334 814.916,331.892 801.21,327.56C788.795,323.697 782.537,318.428 782.041,311.637ZM802.004,324.165C833.688,334.234 864.179,331.775 870.039,318.779C873.317,311.286 868.549,300.748 856.035,288.103C849.082,281.195 840.441,277.566 831.701,277.566C826.139,277.566 820.577,278.971 815.413,281.898C795.25,293.372 784.424,303.793 785.02,311.286C785.418,316.32 791.278,320.77 802.004,324.165Z" clip-rule="evenodd" fill-rule="evenodd" fill="#848484"/>
<path d="M1098.3,1625.156C1046.046,1617.312 1015.356,1564.78 976.642,1498.223C965.81,1479.682 954.576,1460.428 941.94,1440.461C910.246,1390.425 874.742,1360.356 836.528,1351.085C793.1,1340.626 745.36,1356.79 694.71,1399.101C639.046,1445.572 558.508,1520.329 489.405,1589.738C470.048,1609.23 444.773,1635.14 420,1662L424.413,1662C444.071,1640.844 466.437,1617.55 491.31,1592.472C560.314,1523.182 640.752,1448.424 696.314,1402.072C790.694,1323.274 872.534,1336.942 939.432,1442.72C951.968,1462.568 963.202,1481.822 974.034,1500.362C1013.25,1567.632 1044.24,1620.64 1097.798,1628.722C1135.81,1634.426 1157.576,1645.598 1162.79,1662L1166,1662C1161.086,1643.578 1138.318,1631.218 1098.3,1625.156Z" fill="#848484"/>
<path d="M811.2,1486.629C792.3,1476.741 772.9,1477.932 753.5,1490.084C705.4,1520.107 661.8,1555.61 623.9,1595.76C600.6,1620.421 583,1643.057 570,1662L574,1662C603.6,1619.468 660.8,1551.917 754.8,1493.182C773.4,1481.626 791.9,1480.434 809.9,1489.846C846.2,1508.789 874.6,1567.166 892,1612.915C898.7,1630.309 904.3,1647.346 908.8,1662L912,1662C907.4,1646.989 901.7,1629.475 894.8,1611.486C869.2,1544.173 841,1502.117 811.2,1486.629Z" fill="#848484"/>
<path d="M341.972,1247.663C338.432,1239.123 339.039,1226.786 348.952,1219.906C363.821,1209.586 384.153,1214.331 392.144,1222.397C395.583,1225.837 396.797,1229.87 395.482,1233.666C392.852,1241.732 382.736,1250.036 365.541,1258.221C363.012,1259.407 360.483,1260 358.156,1260C350.671,1260 344.804,1254.306 341.972,1247.663ZM364.327,1254.899C380.511,1247.189 390.323,1239.36 392.649,1232.361C393.661,1229.396 391.84,1226.667 390.019,1225.125C385.771,1220.855 377.375,1217.652 368.474,1217.652C362.304,1217.652 355.931,1219.194 350.368,1222.99C342.073,1228.684 341.466,1238.648 344.602,1246.003C347.738,1253.357 355.223,1259.288 364.327,1254.899Z" clip-rule="evenodd" fill-rule="evenodd" fill="#848484"/>
<path d="M501.593,1539.136C497.699,1551.059 455.465,1577.074 441.486,1583.94C438.491,1585.385 435.596,1586.107 432.9,1585.987C424.313,1585.987 417.624,1579.363 414.329,1571.414C410.135,1561.297 410.934,1546.724 422.316,1538.654C442.285,1524.442 490.31,1522.154 499.896,1532.03C501.892,1533.957 502.491,1536.486 501.593,1539.136ZM423.814,1541.786C414.029,1548.771 413.33,1560.936 417.025,1569.848C420.719,1578.761 429.505,1585.987 440.288,1580.567C457.961,1571.775 495.602,1547.205 498.697,1537.811C498.997,1536.968 499.097,1536.004 497.899,1534.8C489.312,1526.008 442.086,1528.778 423.814,1541.786Z" clip-rule="evenodd" fill-rule="evenodd" fill="#848484"/>
<path d="M81.179,81.945C97.335,68.705 92.05,26.599 86.664,0L83.573,0C84.969,6.68 86.265,14.433 87.362,22.544C89.955,43.179 90.753,69.778 79.584,79.082C66.419,89.817 39.692,75.742 0,37.215L0,41.748C30.617,71.209 53.854,86 69.411,86C73.999,86 77.888,84.569 81.179,81.945Z" fill="#848484"/>
<path d="M675.766,868C660.905,868 645.033,866.252 633.71,861.24C617.534,854.246 616.624,843.523 618.95,835.831C621.275,827.555 626.026,821.494 633.204,817.881C646.044,811.471 666.263,812.986 693.256,822.543C713.173,829.653 729.651,838.628 729.854,838.745C738.346,843.64 738.649,848.302 737.537,851.333C734.201,860.074 713.173,865.203 694.672,867.068C688.909,867.65 682.439,868 675.766,868ZM634.316,821.145C627.947,824.292 623.701,829.653 621.679,836.996C619.152,845.971 623.499,853.081 634.822,858.093C648.167,863.921 671.015,866.019 694.368,863.687C715.902,861.473 732.482,855.878 734.706,850.05C735.818,847.02 731.876,843.99 728.438,842.008C727.427,841.425 683.551,817.648 652.009,817.648C645.437,817.648 639.371,818.58 634.316,821.145Z" clip-rule="evenodd" fill-rule="evenodd" fill="#848484"/>
</g>
</svg>
