<svg width="186" height="84" viewBox="0 0 186 84" fill="none" xmlns="http://www.w3.org/2000/svg" xmlns:xlink="http://www.w3.org/1999/xlink">
<g filter="url(#filterI1_6148;145_145;29_586)">
<path d="M0.72,14.878C0.72,9.726 0.72,7.149 1.723,5.181C2.605,3.45 4.012,2.043 5.743,1.161C7.711,0.158 10.288,0.158 15.44,0.158L170,0.158C175.153,0.158 177.729,0.158 179.697,1.161C181.428,2.043 182.835,3.45 183.717,5.181C184.72,7.149 184.72,9.726 184.72,14.878L184.72,67.438C184.72,72.59 184.72,75.167 183.717,77.135C182.835,78.866 181.428,80.273 179.697,81.155C177.729,82.158 175.153,82.158 170,82.158L15.44,82.158C10.288,82.158 7.711,82.158 5.743,81.155C4.012,80.273 2.605,78.866 1.723,77.135C0.72,75.167 0.72,72.59 0.72,67.438L0.72,14.878Z" clip-rule="evenodd" fill-rule="evenodd" fill="#ADB3BC"/>
</g>
<defs>
<filter id="filterI1_6148;145_145;29_586" x="0.720215" y="0.158081" width="92" height="42" filterUnits="userSpaceOnUse" color-interpolation-filters="sRGB">
<feFlood flood-opacity="0" result="BackgroundImageFix"/>
<feColorMatrix in="SourceAlpha" type="matrix" values="0 0 0 0 0 0 0 0 0 0 0 0 0 0 0 0 0 0 127 0" result="hardAlpha"/>
<feMorphology radius="0" operator="dilate" in="SourceAlpha" result="0dropshadow"/>
<feOffset dx="0" dy="1"/>
<feGaussianBlur stdDeviation="0"/>
<feComposite in2="hardAlpha" operator="out"/>
<feColorMatrix type="matrix" values="0 0 0 0 0.537255 0 0 0 0 0.541176 0 0 0 0 0.552941 0 0 0 1 0"/>
<feBlend mode="normal" in2="BackgroundImageFix" result="0dropshadow"/>
<feBlend mode="normal" in="SourceGraphic" in2="0dropshadow" result="shape"/>
</filter>
</defs>
</svg>
