<svg width="40" height="34" viewBox="0 0 40 34" fill="none" xmlns="http://www.w3.org/2000/svg" xmlns:xlink="http://www.w3.org/1999/xlink">
<path d="M38.224,20.564L29.495,20.564L29.495,28.365C29.495,28.523 29.495,28.667 29.495,28.817C29.495,28.948 29.495,29.073 29.489,29.204C29.485,29.485 29.46,29.765 29.412,30.042C29.361,30.318 29.267,30.585 29.135,30.835C28.999,31.085 28.822,31.313 28.611,31.51C28.398,31.707 28.155,31.872 27.891,32.001C27.622,32.124 27.338,32.213 27.044,32.263C26.75,32.307 26.453,32.331 26.155,32.335C26.016,32.335 25.882,32.342 25.746,32.342L14.516,32.342C14.377,32.342 14.243,32.335 14.107,32.335C13.809,32.331 13.512,32.307 13.217,32.263C12.924,32.213 12.64,32.124 12.372,32.001C12.107,31.872 11.864,31.707 11.652,31.51C11.44,31.313 11.263,31.085 11.127,30.835C10.995,30.585 10.902,30.318 10.85,30.042C10.803,29.765 10.777,29.485 10.773,29.204C10.773,29.073 10.767,28.948 10.767,28.817C10.767,28.667 10.767,28.523 10.767,28.365L10.767,20.564L1.899,20.564C1.002,20.564 -0.148,18.736 0.929,17.721C1.844,16.862 16.236,3.303 19.248,0.479C19.469,0.222 19.782,0.05 20.128,-0.005L20.151,-0.005C20.45,0.01 20.728,0.146 20.914,0.368C23.926,3.191 38.367,16.862 39.283,17.721C40.361,18.736 39.458,20.564 38.224,20.564Z" fill="#000000"/>
</svg>
