<svg width="36" height="26" viewBox="0 0 36 26" fill="none" xmlns="http://www.w3.org/2000/svg" xmlns:xlink="http://www.w3.org/1999/xlink">
<path d="M35.387,3.506L13.24,25.396C13.047,25.588 12.818,25.74 12.566,25.843C12.313,25.947 12.043,26 11.769,26C11.496,26 11.225,25.947 10.973,25.843C10.721,25.74 10.492,25.588 10.299,25.396L0.609,15.819C0.416,15.628 0.263,15.402 0.158,15.152C0.054,14.903 0,14.636 0,14.366C0,14.096 0.054,13.828 0.158,13.579C0.263,13.33 0.416,13.103 0.609,12.912C0.802,12.721 1.032,12.57 1.284,12.466C1.536,12.363 1.807,12.31 2.08,12.31C2.353,12.31 2.624,12.363 2.876,12.466C3.128,12.57 3.358,12.721 3.551,12.912L11.771,21.037L32.449,0.602C32.839,0.217 33.368,0 33.92,0C34.472,0 35.001,0.217 35.391,0.602C35.781,0.988 36,1.511 36,2.056C36,2.601 35.781,3.124 35.391,3.509L35.387,3.506Z" fill="#A79277"/>
</svg>
