<svg width="50" height="50" viewBox="0 0 50 50" fill="none" xmlns="http://www.w3.org/2000/svg" xmlns:xlink="http://www.w3.org/1999/xlink">
<path d="M13.889,11.111C13.889,8.164 15.06,5.338 17.143,3.254C19.227,1.171 22.053,0 25,0C27.947,0 30.773,1.171 32.857,3.254C34.94,5.338 36.111,8.164 36.111,11.111C36.111,14.058 34.94,16.884 32.857,18.968C30.773,21.052 27.947,22.222 25,22.222C22.053,22.222 19.227,21.052 17.143,18.968C15.06,16.884 13.889,14.058 13.889,11.111ZM13.889,27.778C10.205,27.778 6.673,29.241 4.068,31.846C1.463,34.45 0,37.983 0,41.667C0,43.877 0.878,45.996 2.441,47.559C4.004,49.122 6.123,50 8.333,50L41.667,50C43.877,50 45.996,49.122 47.559,47.559C49.122,45.996 50,43.877 50,41.667C50,37.983 48.537,34.45 45.932,31.846C43.327,29.241 39.795,27.778 36.111,27.778L13.889,27.778Z" clip-rule="evenodd" fill-rule="evenodd" fill="#898A8D"/>
</svg>
