<svg width="100" height="100" viewBox="0 0 100 100" fill="none" xmlns="http://www.w3.org/2000/svg" xmlns:xlink="http://www.w3.org/1999/xlink">
<path d="M50,10C43.004,9.999 36.13,11.832 30.064,15.318C23.998,18.804 18.952,23.82 15.43,29.865C11.908,35.91 10.034,42.773 9.993,49.769C9.953,56.765 11.748,63.65 15.2,69.735C17.533,66.703 20.532,64.248 23.965,62.56C27.399,60.872 31.174,59.996 35,60L65,60C68.826,59.996 72.601,60.872 76.035,62.56C79.468,64.248 82.467,66.703 84.8,69.735C88.252,63.65 90.047,56.765 90.007,49.769C89.966,42.773 88.092,35.91 84.57,29.865C81.048,23.82 76.002,18.804 69.936,15.318C63.87,11.832 56.996,9.999 50,10ZM89.715,80.38C96.4,71.665 100.016,60.984 100,50C100,22.385 77.615,0 50,0C22.385,0 0,22.385 0,50C-0.016,60.984 3.6,71.665 10.285,80.38L10.26,80.47L12.035,82.535C16.724,88.017 22.547,92.418 29.101,95.433C35.655,98.448 42.786,100.006 50,100C60.137,100.019 70.037,96.939 78.375,91.175C81.93,88.719 85.153,85.815 87.965,82.535L89.74,80.47L89.715,80.38ZM50,20C46.022,20 42.206,21.58 39.393,24.393C36.58,27.206 35,31.022 35,35C35,38.978 36.58,42.794 39.393,45.607C42.206,48.42 46.022,50 50,50C53.978,50 57.794,48.42 60.607,45.607C63.42,42.794 65,38.978 65,35C65,31.022 63.42,27.206 60.607,24.393C57.794,21.58 53.978,20 50,20Z" clip-rule="evenodd" fill-rule="evenodd" fill="#FFFFFF"/>
</svg>
