<svg width="40" height="50" viewBox="0 0 40 50" fill="none" xmlns="http://www.w3.org/2000/svg" xmlns:xlink="http://www.w3.org/1999/xlink">
<path d="M1.674,1.674C0,3.349 0,6.04 0,11.429L0,37.143C0,42.531 0,45.223 1.674,46.897C3.349,48.571 6.04,48.571 11.429,48.571L28.571,48.571C33.96,48.571 36.651,48.571 38.326,46.897C40,45.223 40,42.531 40,37.143L40,11.429C40,6.04 40,3.349 38.326,1.674C36.651,0 33.96,0 28.571,0L11.429,0C6.04,0 3.349,0 1.674,1.674ZM11.429,11.429C10.671,11.429 9.944,11.73 9.408,12.265C8.872,12.801 8.571,13.528 8.571,14.286C8.571,15.043 8.872,15.77 9.408,16.306C9.944,16.842 10.671,17.143 11.429,17.143L28.571,17.143C29.329,17.143 30.056,16.842 30.592,16.306C31.128,15.77 31.429,15.043 31.429,14.286C31.429,13.528 31.128,12.801 30.592,12.265C30.056,11.73 29.329,11.429 28.571,11.429L11.429,11.429ZM11.429,22.857C10.671,22.857 9.944,23.158 9.408,23.694C8.872,24.23 8.571,24.957 8.571,25.714C8.571,26.472 8.872,27.199 9.408,27.735C9.944,28.27 10.671,28.571 11.429,28.571L28.571,28.571C29.329,28.571 30.056,28.27 30.592,27.735C31.128,27.199 31.429,26.472 31.429,25.714C31.429,24.957 31.128,24.23 30.592,23.694C30.056,23.158 29.329,22.857 28.571,22.857L11.429,22.857ZM11.429,34.286C10.671,34.286 9.944,34.587 9.408,35.123C8.872,35.658 8.571,36.385 8.571,37.143C8.571,37.901 8.872,38.627 9.408,39.163C9.944,39.699 10.671,40 11.429,40L22.857,40C23.615,40 24.342,39.699 24.877,39.163C25.413,38.627 25.714,37.901 25.714,37.143C25.714,36.385 25.413,35.658 24.877,35.123C24.342,34.587 23.615,34.286 22.857,34.286L11.429,34.286Z" clip-rule="evenodd" fill-rule="evenodd" fill="#898A8D"/>
</svg>
