<svg width="36" height="38" viewBox="0 0 36 38" fill="none" xmlns="http://www.w3.org/2000/svg" xmlns:xlink="http://www.w3.org/1999/xlink">
<path d="M17.876,-0.904C14.163,-0.904 10.602,0.532 7.977,3.088C5.351,5.645 3.876,9.112 3.876,12.727L3.876,19.597C3.877,19.899 3.805,20.197 3.666,20.468L0.232,27.153C0.065,27.479 -0.015,27.842 0.002,28.207C0.019,28.572 0.131,28.926 0.329,29.237C0.526,29.548 0.801,29.804 1.129,29.982C1.456,30.16 1.825,30.253 2.2,30.253L33.552,30.253C33.927,30.253 34.296,30.16 34.624,29.982C34.951,29.804 35.227,29.548 35.424,29.237C35.621,28.926 35.734,28.572 35.75,28.207C35.767,27.842 35.688,27.479 35.52,27.153L32.088,20.468C31.949,20.197 31.877,19.899 31.876,19.597L31.876,12.727C31.876,9.112 30.401,5.645 27.776,3.088C25.15,0.532 21.589,-0.904 17.876,-0.904ZM17.876,36.095C16.635,36.095 15.424,35.721 14.411,35.023C13.397,34.326 12.63,33.339 12.216,32.2L23.536,32.2C23.122,33.339 22.356,34.326 21.342,35.023C20.328,35.721 19.118,36.095 17.876,36.095Z" fill="#FFFFFF"/>
</svg>
