<svg width="56" height="56" viewBox="0 0 56 56" fill="none" xmlns="http://www.w3.org/2000/svg" xmlns:xlink="http://www.w3.org/1999/xlink">
<path d="M21.906,52.638L21.906,35.826L34.08,35.826L34.08,52.638C34.08,54.487 35.45,56 37.124,56L46.254,56C47.928,56 49.297,54.487 49.297,52.638L49.297,29.101L54.471,29.101C55.871,29.101 56.541,27.185 55.476,26.176L30.032,0.857C28.876,-0.286 27.111,-0.286 25.954,0.857L0.511,26.176C-0.524,27.185 0.115,29.101 1.515,29.101L6.689,29.101L6.689,52.638C6.689,54.487 8.059,56 9.733,56L18.863,56C20.537,56 21.906,54.487 21.906,52.638Z" fill="#898A8D"/>
</svg>
