<svg width="50" height="50" viewBox="0 0 50 50" fill="none" xmlns="http://www.w3.org/2000/svg" xmlns:xlink="http://www.w3.org/1999/xlink">
<path d="M41.071,15.385L1.786,15.385C1.312,15.385 0.858,15.587 0.523,15.948C0.188,16.309 0,16.798 0,17.308L0,28.846C0.005,32.12 0.655,35.356 1.908,38.339C3.16,41.323 4.985,43.986 7.263,46.154L1.786,46.154C1.312,46.154 0.858,46.356 0.523,46.717C0.188,47.078 0,47.567 0,48.077C0,48.587 0.188,49.076 0.523,49.437C0.858,49.797 1.312,50 1.786,50L41.071,50C41.545,50 41.999,49.797 42.334,49.437C42.669,49.076 42.857,48.587 42.857,48.077C42.857,47.567 42.669,47.078 42.334,46.717C41.999,46.356 41.545,46.154 41.071,46.154L35.594,46.154C38.329,43.543 40.402,40.227 41.621,36.517C43.889,36.366 46.018,35.29 47.575,33.508C49.132,31.725 49.999,29.37 50,26.923L50,25C50,22.45 49.059,20.004 47.385,18.201C45.71,16.398 43.439,15.385 41.071,15.385ZM46.429,26.923C46.428,28.167 46.054,29.378 45.362,30.374C44.67,31.371 43.697,32.099 42.589,32.452C42.766,31.259 42.856,30.054 42.857,28.846L42.857,19.563C43.901,19.96 44.805,20.696 45.445,21.67C46.085,22.644 46.428,23.807 46.429,25L46.429,26.923ZM19.643,9.615L19.643,1.923C19.643,1.413 19.831,0.924 20.166,0.563C20.501,0.203 20.955,0 21.429,0C21.902,0 22.356,0.203 22.691,0.563C23.026,0.924 23.214,1.413 23.214,1.923L23.214,9.615C23.214,10.125 23.026,10.615 22.691,10.975C22.356,11.336 21.902,11.538 21.429,11.538C20.955,11.538 20.501,11.336 20.166,10.975C19.831,10.615 19.643,10.125 19.643,9.615ZM26.786,9.615L26.786,1.923C26.786,1.413 26.974,0.924 27.309,0.563C27.644,0.203 28.098,0 28.571,0C29.045,0 29.499,0.203 29.834,0.563C30.169,0.924 30.357,1.413 30.357,1.923L30.357,9.615C30.357,10.125 30.169,10.615 29.834,10.975C29.499,11.336 29.045,11.538 28.571,11.538C28.098,11.538 27.644,11.336 27.309,10.975C26.974,10.615 26.786,10.125 26.786,9.615ZM12.5,9.615L12.5,1.923C12.5,1.413 12.688,0.924 13.023,0.563C13.358,0.203 13.812,0 14.286,0C14.759,0 15.214,0.203 15.548,0.563C15.883,0.924 16.071,1.413 16.071,1.923L16.071,9.615C16.071,10.125 15.883,10.615 15.548,10.975C15.214,11.336 14.759,11.538 14.286,11.538C13.812,11.538 13.358,11.336 13.023,10.975C12.688,10.615 12.5,10.125 12.5,9.615Z" fill="#9A856B"/>
</svg>
