<svg width="56" height="56" viewBox="0 0 56 56" fill="none" xmlns="http://www.w3.org/2000/svg" xmlns:xlink="http://www.w3.org/1999/xlink">
<path d="M15.556,12.444C15.556,9.144 16.867,5.979 19.2,3.645C21.534,1.311 24.7,0 28,0C31.3,0 34.466,1.311 36.8,3.645C39.133,5.979 40.444,9.144 40.444,12.444C40.444,15.745 39.133,18.91 36.8,21.244C34.466,23.578 31.3,24.889 28,24.889C24.7,24.889 21.534,23.578 19.2,21.244C16.867,18.91 15.556,15.745 15.556,12.444ZM15.556,31.111C11.43,31.111 7.473,32.75 4.556,35.667C1.639,38.584 0,42.541 0,46.667C0,49.142 0.983,51.516 2.734,53.266C4.484,55.017 6.858,56 9.333,56L46.667,56C49.142,56 51.516,55.017 53.266,53.266C55.017,51.516 56,49.142 56,46.667C56,42.541 54.361,38.584 51.444,35.667C48.527,32.75 44.57,31.111 40.444,31.111L15.556,31.111Z" clip-rule="evenodd" fill-rule="evenodd" fill="#9A856B"/>
</svg>
