<svg width="438" height="438" viewBox="0 0 438 438" fill="none" xmlns="http://www.w3.org/2000/svg" xmlns:xlink="http://www.w3.org/1999/xlink">
<path d="M218,-0.75C276.016,-0.75 331.656,22.297 372.68,63.32C413.704,104.344 436.75,159.984 436.75,218C436.75,276.016 413.704,331.656 372.68,372.68C331.656,413.704 276.016,436.75 218,436.75C159.984,436.75 104.344,413.704 63.32,372.68C22.297,331.656 -0.75,276.016 -0.75,218C-0.75,159.984 22.297,104.344 63.32,63.32C104.344,22.297 159.984,-0.75 218,-0.75ZM190.75,261.156L142.156,212.532C140.414,210.79 138.346,209.408 136.07,208.464C133.794,207.522 131.354,207.036 128.891,207.036C126.427,207.036 123.987,207.522 121.711,208.464C119.435,209.408 117.367,210.79 115.625,212.532C112.107,216.05 110.13,220.822 110.13,225.796C110.13,230.772 112.107,235.544 115.625,239.062L177.5,300.938C179.237,302.688 181.304,304.078 183.58,305.026C185.857,305.974 188.299,306.464 190.766,306.464C193.232,306.464 195.674,305.974 197.951,305.026C200.228,304.078 202.294,302.688 204.032,300.938L332.156,172.781C333.922,171.046 335.326,168.979 336.288,166.699C337.25,164.419 337.752,161.97 337.764,159.495C337.776,157.02 337.296,154.567 336.356,152.278C335.414,149.989 334.03,147.909 332.28,146.158C330.53,144.406 328.452,143.019 326.164,142.075C323.876,141.131 321.424,140.65 318.948,140.658C316.474,140.667 314.024,141.165 311.744,142.125C309.462,143.085 307.394,144.487 305.656,146.25L190.75,261.156Z" fill="url(#pf_0_1_6193)"/>
<defs>
<linearGradient id="pf_0_1_6193" x1="218" y1="-0.75" x2="218" y2="436.75" gradientUnits="userSpaceOnUse">
<stop stop-color="#3EEB22"/>
<stop offset="1" stop-color="#3E6428"/>
</linearGradient>
</defs>
</svg>
