<svg width="50" height="50" viewBox="0 0 50 50" fill="none" xmlns="http://www.w3.org/2000/svg" xmlns:xlink="http://www.w3.org/1999/xlink">
<path d="M40,6.667L45,6.667C46.326,6.667 47.598,7.193 48.536,8.131C49.473,9.069 50,10.341 50,11.667L50,45C50,46.326 49.473,47.598 48.536,48.536C47.598,49.473 46.326,50 45,50L5,50C3.674,50 2.402,49.473 1.464,48.536C0.527,47.598 0,46.326 0,45L0,11.667C0,10.341 0.527,9.069 1.464,8.131C2.402,7.193 3.674,6.667 5,6.667L10,6.667L10,0L13.333,0L13.333,6.667L36.667,6.667L36.667,0L40,0L40,6.667ZM20,26.667L10,26.667L10,23.333L20,23.333L20,26.667ZM40,23.333L30,23.333L30,26.667L40,26.667L40,23.333ZM20,36.667L10,36.667L10,33.333L20,33.333L20,36.667ZM30,36.667L40,36.667L40,33.333L30,33.333L30,36.667Z" clip-rule="evenodd" fill-rule="evenodd" fill="#9A856B"/>
</svg>
