<svg width="56" height="56" viewBox="0 0 56 56" fill="none" xmlns="http://www.w3.org/2000/svg" xmlns:xlink="http://www.w3.org/1999/xlink">
<path d="M46,17.231L2,17.231C1.47,17.231 0.961,17.458 0.586,17.862C0.211,18.266 0,18.813 0,19.385L0,32.308C0.006,35.975 0.734,39.598 2.136,42.94C3.539,46.281 5.583,49.264 8.135,51.692L2,51.692C1.47,51.692 0.961,51.919 0.586,52.323C0.211,52.727 0,53.275 0,53.846C0,54.417 0.211,54.965 0.586,55.369C0.961,55.773 1.47,56 2,56L46,56C46.53,56 47.039,55.773 47.414,55.369C47.789,54.965 48,54.417 48,53.846C48,53.275 47.789,52.727 47.414,52.323C47.039,51.919 46.53,51.692 46,51.692L39.865,51.692C42.928,48.769 45.251,45.055 46.615,40.899C49.155,40.73 51.54,39.525 53.284,37.529C55.028,35.532 55.999,32.895 56,30.154L56,28C56,25.144 54.946,22.405 53.071,20.385C51.196,18.365 48.652,17.231 46,17.231ZM52,30.154C51.999,31.547 51.58,32.903 50.805,34.019C50.03,35.135 48.941,35.951 47.7,36.346C47.898,35.011 47.999,33.66 48,32.308L48,21.91C49.17,22.355 50.182,23.18 50.898,24.271C51.615,25.361 52,26.664 52,28L52,30.154ZM22,10.769L22,2.154C22,1.583 22.211,1.035 22.586,0.631C22.961,0.227 23.47,0 24,0C24.53,0 25.039,0.227 25.414,0.631C25.789,1.035 26,1.583 26,2.154L26,10.769C26,11.34 25.789,11.888 25.414,12.292C25.039,12.696 24.53,12.923 24,12.923C23.47,12.923 22.961,12.696 22.586,12.292C22.211,11.888 22,11.34 22,10.769ZM30,10.769L30,2.154C30,1.583 30.211,1.035 30.586,0.631C30.961,0.227 31.47,0 32,0C32.53,0 33.039,0.227 33.414,0.631C33.789,1.035 34,1.583 34,2.154L34,10.769C34,11.34 33.789,11.888 33.414,12.292C33.039,12.696 32.53,12.923 32,12.923C31.47,12.923 30.961,12.696 30.586,12.292C30.211,11.888 30,11.34 30,10.769ZM14,10.769L14,2.154C14,1.583 14.211,1.035 14.586,0.631C14.961,0.227 15.47,0 16,0C16.53,0 17.039,0.227 17.414,0.631C17.789,1.035 18,1.583 18,2.154L18,10.769C18,11.34 17.789,11.888 17.414,12.292C17.039,12.696 16.53,12.923 16,12.923C15.47,12.923 14.961,12.696 14.586,12.292C14.211,11.888 14,11.34 14,10.769Z" fill="#898A8D"/>
</svg>
