<svg width="50" height="50" viewBox="0 0 50 50" fill="none" xmlns="http://www.w3.org/2000/svg" xmlns:xlink="http://www.w3.org/1999/xlink">
<path d="M19.559,46.998L19.559,31.987L30.429,31.987L30.429,46.998C30.429,48.649 31.652,50 33.146,50L41.298,50C42.793,50 44.016,48.649 44.016,46.998L44.016,25.983L48.635,25.983C49.885,25.983 50.483,24.272 49.532,23.371L26.815,0.766C25.782,-0.255 24.206,-0.255 23.173,0.766L0.456,23.371C-0.468,24.272 0.103,25.983 1.353,25.983L5.972,25.983L5.972,46.998C5.972,48.649 7.195,50 8.69,50L16.842,50C18.336,50 19.559,48.649 19.559,46.998Z" fill="#898A8D"/>
</svg>
