<svg width="44" height="36" viewBox="0 0 44 36" fill="none" xmlns="http://www.w3.org/2000/svg" xmlns:xlink="http://www.w3.org/1999/xlink">
<path d="M23.478,1.337C24.064,0.737 24.859,0.4 25.687,0.4C26.516,0.4 27.311,0.737 27.897,1.337L41.959,15.737C42.545,16.337 42.874,17.151 42.874,17.999C42.874,18.848 42.545,19.662 41.959,20.262L27.897,34.662C27.307,35.245 26.518,35.567 25.699,35.56C24.879,35.553 24.096,35.216 23.516,34.623C22.937,34.029 22.608,33.227 22.601,32.388C22.594,31.549 22.909,30.74 23.478,30.137L31.937,21.199L2.25,21.199C1.421,21.199 0.626,20.862 0.04,20.262C-0.546,19.662 -0.875,18.848 -0.875,17.999C-0.875,17.151 -0.546,16.337 0.04,15.737C0.626,15.136 1.421,14.799 2.25,14.799L31.937,14.799L23.478,5.862C22.892,5.262 22.563,4.448 22.563,3.599C22.563,2.751 22.892,1.937 23.478,1.337Z" transform="rotate(-360 21 17.98)" fill="#FFFFFF"/>
</svg>
