<svg width="62" height="42" viewBox="0 0 62 42" fill="none" xmlns="http://www.w3.org/2000/svg" xmlns:xlink="http://www.w3.org/1999/xlink">
<path d="M4,0.25C1.929,0.25 0.25,1.929 0.25,4C0.25,6.071 1.929,7.75 4,7.75L4,0.25ZM56.5,7.75C58.571,7.75 60.25,6.071 60.25,4C60.25,1.929 58.571,0.25 56.5,0.25L56.5,7.75ZM4,16.5C1.929,16.5 0.25,18.179 0.25,20.25C0.25,22.321 1.929,24 4,24L4,16.5ZM56.5,24C58.571,24 60.25,22.321 60.25,20.25C60.25,18.179 58.571,16.5 56.5,16.5L56.5,24ZM4,32.75C1.929,32.75 0.25,34.429 0.25,36.5C0.25,38.571 1.929,40.25 4,40.25L4,32.75ZM56.5,40.25C58.571,40.25 60.25,38.571 60.25,36.5C60.25,34.429 58.571,32.75 56.5,32.75L56.5,40.25ZM4,7.75L56.5,7.75L56.5,0.25L4,0.25L4,7.75ZM4,24L56.5,24L56.5,16.5L4,16.5L4,24ZM4,40.25L56.5,40.25L56.5,32.75L4,32.75L4,40.25Z" fill="#D2D2D2"/>
</svg>
