<svg width="30" height="22" viewBox="0 0 30 22" fill="none" xmlns="http://www.w3.org/2000/svg" xmlns:xlink="http://www.w3.org/1999/xlink">
<path d="M15.001,4.569C19.354,4.569 23.54,6.277 26.694,9.341C26.932,9.577 27.312,9.574 27.546,9.334L29.816,6.993C29.935,6.871 30.001,6.706 30,6.535C29.999,6.363 29.931,6.199 29.811,6.078C21.531,-2.026 8.469,-2.026 0.189,6.078C0.069,6.199 0.001,6.363 0,6.535C-0.001,6.706 0.065,6.871 0.183,6.993L2.455,9.334C2.688,9.574 3.068,9.577 3.306,9.341C6.461,6.277 10.648,4.569 15.001,4.569ZM15.001,12.184C17.392,12.184 19.699,13.092 21.471,14.731C21.711,14.964 22.089,14.959 22.323,14.72L24.591,12.379C24.71,12.257 24.776,12.09 24.775,11.917C24.773,11.744 24.703,11.579 24.582,11.459C19.183,6.33 10.823,6.33 5.425,11.459C5.303,11.579 5.233,11.744 5.232,11.917C5.23,12.09 5.297,12.257 5.416,12.379L7.684,14.72C7.917,14.959 8.295,14.964 8.535,14.731C10.306,13.093 12.611,12.185 15.001,12.184ZM19.544,17.308C19.548,17.481 19.481,17.649 19.36,17.77L15.436,21.814C15.321,21.933 15.164,22 15.001,22C14.837,22 14.68,21.933 14.565,21.814L10.641,17.77C10.52,17.649 10.453,17.481 10.457,17.308C10.461,17.134 10.534,16.97 10.66,16.853C13.166,14.689 16.836,14.689 19.341,16.853C19.467,16.97 19.541,17.134 19.544,17.308Z" clip-rule="evenodd" fill-rule="evenodd" fill="#FFFFFF"/>
</svg>
